<?xml version="1.0" encoding="UTF-8" standalone="no"?>
<svg
   viewBox="0 0 4266.6665 2666.6667"
   height="2666.6667"
   width="4266.6665"
   xml:space="preserve"
   id="svg2"
   version="1.1"
   sodipodi:docname="10613731_10171.svg"
   inkscape:version="1.2.1 (9c6d41e410, 2022-07-14)"
   xmlns:inkscape="http://www.inkscape.org/namespaces/inkscape"
   xmlns:sodipodi="http://sodipodi.sourceforge.net/DTD/sodipodi-0.dtd"
   xmlns="http://www.w3.org/2000/svg"
   xmlns:svg="http://www.w3.org/2000/svg"
   xmlns:rdf="http://www.w3.org/1999/02/22-rdf-syntax-ns#"
   xmlns:cc="http://creativecommons.org/ns#"
   xmlns:dc="http://purl.org/dc/elements/1.1/"><sodipodi:namedview
     id="namedview720"
     pagecolor="#ffffff"
     bordercolor="#999999"
     borderopacity="1"
     inkscape:showpageshadow="0"
     inkscape:pageopacity="0"
     inkscape:pagecheckerboard="0"
     inkscape:deskcolor="#d1d1d1"
     showgrid="false"
     inkscape:zoom="0.17287502"
     inkscape:cx="2504.6996"
     inkscape:cy="1200.2891"
     inkscape:window-width="1024"
     inkscape:window-height="706"
     inkscape:window-x="-8"
     inkscape:window-y="-8"
     inkscape:window-maximized="1"
     inkscape:current-layer="g12" /><metadata
     id="metadata8"><rdf:RDF><cc:Work
         rdf:about=""><dc:format>image/svg+xml</dc:format><dc:type
           rdf:resource="http://purl.org/dc/dcmitype/StillImage" /></cc:Work></rdf:RDF></metadata><defs
     id="defs6" /><g
     transform="matrix(1.3333333,0,0,-1.3333333,0,2666.6667)"
     id="g10"><g
       transform="scale(0.1)"
       id="g12"><g
         transform="matrix(-1.87726,0,0,1.87726,34037.922,0)"
         id="g18" /><g
         transform="matrix(-1.42853,0,0,1.42853,34037.922,0)"
         id="g22"><path
           id="path24"
           style="fill:#ff905f;fill-opacity:1;fill-rule:nonzero;stroke:none"
           d="m 9511.5,5198.76 c -301.08,1791.48 907.2,3487.77 2698.6,3788.82 1791.5,301.05 3487.8,-907.18 3788.9,-2698.68 301,-1791.42 -907.2,-3487.78 -2698.6,-3788.78 -1791.5,-301.08 -3487.89,907.15 -3788.9,2698.64" /></g><g
         transform="matrix(-1.4019,0,0,1.4019,34037.922,0)"
         id="g26"><path
           id="path28"
           style="fill:#ffc6b0;fill-opacity:1;fill-rule:nonzero;stroke:none"
           d="m 9975.63,5345.12 c -280.47,1669.03 845.17,3249.35 2514.17,3529.82 1669,280.46 3249.3,-845.16 3529.8,-2514.13 280.4,-1669.02 -845.2,-3249.31 -2514.2,-3529.79 -1668.9,-280.47 -3249.3,845.15 -3529.77,2514.1" /></g><g
         transform="matrix(-1.38331,0,0,1.38331,34037.922,0)"
         id="g30"><path
           id="path32"
           style="fill:#f78248;fill-opacity:1;fill-rule:nonzero;stroke:none"
           d="m 10310.2,5450.64 c -265.7,1580.7 800.4,3077.48 2381.1,3343.11 1580.7,265.63 3077.4,-800.45 3343.1,-2381.14 265.6,-1580.71 -800.5,-3077.49 -2381.2,-3343.08 -1580.7,-265.67 -3077.5,800.4 -3343,2381.11" /></g><g
         transform="matrix(-1.14286,0,0,1.14286,34037.922,0)"
         id="g34"><path
           id="path36"
           style="fill:#ea7147;fill-opacity:1;fill-rule:nonzero;stroke:none"
           d="m 13885.9,8225.25 c -104.2,619.72 289.3,1128.7 895.4,1294.87 827.3,226.8 1310.4,-409.25 1414.5,-1028.96 104.2,-619.76 -308.4,-1297.62 -1046.4,-1308.73 -628.4,-9.54 -1159.4,423.06 -1263.5,1042.82" /></g><g
         transform="matrix(-1.07337,0,0,1.07337,34037.922,0)"
         id="g38"><path
           id="path40"
           style="fill:#ffa076;fill-opacity:1;fill-rule:nonzero;stroke:none"
           d="m 15395.2,9271.47 c -39.1,232.3 108.5,423.06 335.7,485.33 309.9,85 491,-153.37 530.1,-385.63 39,-232.27 -115.7,-486.34 -392.3,-490.53 -235.5,-3.54 -434.5,158.57 -473.5,390.83" /></g><g
         transform="matrix(-1.11277,0,0,1.11277,34037.922,0)"
         id="g42"><path
           id="path44"
           style="fill:#ffa076;fill-opacity:1;fill-rule:nonzero;stroke:none"
           d="m 15878,6614.11 c 22.4,164.45 120.1,267.53 231,269.42 151.6,2.42 191,-191.42 168.6,-355.87 -22.3,-164.46 -134,-309.23 -256.9,-262.86 -104.7,39.45 -165,184.85 -142.7,349.31" /></g><g
         transform="matrix(-1.18277,0,0,1.18277,34037.922,0)"
         id="g46"><path
           id="path48"
           style="fill:#ffa076;fill-opacity:1;fill-rule:nonzero;stroke:none"
           d="m 15747.4,6380.04 c -48.7,196.57 18.1,358.14 146.3,410.98 175.1,72.12 308.9,-129.6 357.6,-326.18 48.7,-196.57 -15.4,-411.75 -179.4,-415.38 -139.7,-3.13 -275.8,134.01 -324.5,330.58" /></g><g
         transform="matrix(-1.22886,0,0,1.22886,34037.922,0)"
         id="g50"><path
           id="path52"
           style="fill:#ffa076;fill-opacity:1;fill-rule:nonzero;stroke:none"
           d="m 16058.6,7360.89 c 170.8,-93.99 241.4,-246.73 194.9,-371.89 -63.3,-170.8 -293.3,-133.7 -464.1,-39.71 -170.8,93.99 -281,279.77 -176.4,398.18 89,100.74 274.9,107.41 445.6,13.42" /></g><g
         transform="matrix(-1.27023,0,0,1.27023,34037.922,0)"
         id="g54"><path
           id="path56"
           style="fill:#ffa076;fill-opacity:1;fill-rule:nonzero;stroke:none"
           d="m 16066.5,6162.73 c 165.2,-90.93 233.5,-238.62 188.6,-359.78 -61.3,-165.25 -283.9,-129.35 -449,-38.42 -165.3,90.93 -271.9,270.74 -170.7,385.21 86.1,97.54 265.9,103.92 431.1,12.99" /></g><g
         transform="matrix(-1.02002,0,0,1.02002,34037.922,0)"
         id="g58"><path
           id="path60"
           style="fill:#f78248;fill-opacity:1;fill-rule:nonzero;stroke:none"
           d="m 15700.3,12204.2 c -26.6,158.2 82.6,296.3 238.4,334.7 179,44.1 308.1,-80.2 334.7,-238.4 26.6,-158.3 -82.8,-295.6 -238.4,-334.8 -155.4,-39 -308.1,80.2 -334.7,238.5" /></g><g
         transform="matrix(-1.01119,0,0,1.01119,34037.922,0)"
         id="g62"><path
           id="path64"
           style="fill:#ea7147;fill-opacity:1;fill-rule:nonzero;stroke:none"
           d="m 15967.6,12332.6 c -14.7,87.7 47.5,158 132.1,185.5 86,27.9 170.8,-44.4 185.6,-132.1 14.7,-87.7 -46.8,-160.7 -132.2,-185.6 -85.8,-25 -170.7,44.5 -185.5,132.2" /></g><path
         id="path66"
         style="fill:#f78248;fill-opacity:1;fill-rule:nonzero;stroke:none"
         d="m 19252.022,11490.2 c 17.4,103.7 -54.2,194.2 -156.3,219.4 -117.3,28.9 -202,-52.5 -219.4,-156.3 -17.4,-103.7 54.3,-193.7 156.3,-219.4 101.8,-25.6 202,52.5 219.4,156.3" /><path
         id="path68"
         style="fill:#ea7147;fill-opacity:1;fill-rule:nonzero;stroke:none"
         d="m 19167.422,11504.4 c 9.5,57 -30.9,102.7 -85.9,120.5 -55.9,18.2 -111,-28.8 -120.6,-85.8 -9.6,-57 30.4,-104.4 85.9,-120.6 55.8,-16.2 111,28.9 120.6,85.9" /><path
         id="path70"
         style="fill:#f78248;fill-opacity:1;fill-rule:nonzero;stroke:none"
         d="m 19865.922,10783.5 c 23.4,139.3 -72.6,260.7 -209.7,294.5 -157.5,38.8 -271.1,-70.5 -294.5,-209.7 -23.4,-139.3 72.9,-260.1 209.8,-294.5 136.6,-34.4 271,70.5 294.4,209.7" /><path
         id="path72"
         style="fill:#ea7147;fill-opacity:1;fill-rule:nonzero;stroke:none"
         d="m 19752.322,10802.6 c 12.9,76.5 -41.4,137.8 -115.2,161.8 -74.9,24.4 -148.9,-38.7 -161.8,-115.2 -12.8,-76.5 40.8,-140.1 115.2,-161.8 74.9,-21.8 149,38.7 161.8,115.2" /><g
         transform="matrix(-1.1474,0,0,1.1474,34037.922,0)"
         id="g74"><path
           id="path76"
           style="fill:#f78248;fill-opacity:1;fill-rule:nonzero;stroke:none"
           d="m 15766.9,11284.6 c -23.6,140.7 73.5,263.4 211.9,297.6 159.2,39.2 274,-71.3 297.6,-212 23.6,-140.7 -73.6,-262.7 -212,-297.5 -138,-34.8 -273.9,71.2 -297.5,211.9" /></g><g
         transform="matrix(-1.13857,0,0,1.13857,34037.922,0)"
         id="g78"><path
           id="path80"
           style="fill:#ea7147;fill-opacity:1;fill-rule:nonzero;stroke:none"
           d="m 16004.8,11391.5 c -13.1,77.9 42.3,140.4 117.3,164.8 76.4,24.8 151.7,-39.4 164.8,-117.4 13.1,-77.9 -41.5,-142.6 -117.3,-164.7 -76.3,-22.2 -151.7,39.4 -164.8,117.3" /></g><g
         transform="matrix(-1.09577,0,0,1.09577,34037.922,0)"
         id="g82"><path
           id="path84"
           style="fill:#f78248;fill-opacity:1;fill-rule:nonzero;stroke:none"
           d="m 15838,11755.1 c -20.4,121.9 63.7,228.2 183.7,257.8 137.8,34 237.3,-61.7 257.8,-183.7 20.5,-121.8 -63.7,-227.6 -183.6,-257.8 -119.7,-30.1 -237.3,61.8 -257.9,183.7" /></g><g
         transform="matrix(-1.08847,0,0,1.08847,34037.922,0)"
         id="g86"><path
           id="path88"
           style="fill:#ea7147;fill-opacity:1;fill-rule:nonzero;stroke:none"
           d="m 16044.5,11850.8 c -11.4,67.4 36.6,121.5 101.5,142.6 66.1,21.5 131.3,-34.1 142.7,-101.6 11.3,-67.4 -35.9,-123.4 -101.6,-142.6 -66,-19.2 -131.3,34.2 -142.6,101.6" /></g><path
         id="path90"
         style="fill:#f78248;fill-opacity:1;fill-rule:nonzero;stroke:none"
         d="m 20660.722,8391.1 c 22.4,133.6 -69.7,250.1 -201.2,282.5 -151.1,37.2 -260.1,-67.6 -282.5,-201.2 -22.5,-133.6 69.8,-249.5 201.2,-282.5 131.1,-33 260,67.6 282.5,201.2" /><path
         id="path92"
         style="fill:#ea7147;fill-opacity:1;fill-rule:nonzero;stroke:none"
         d="m 20551.722,8409.4 c 12.4,73.4 -39.7,132.3 -110.5,155.2 -71.9,23.4 -142.9,-37.1 -155.3,-110.5 -12.3,-73.4 39.1,-134.4 110.6,-155.3 71.8,-20.9 142.9,37.2 155.2,110.6" /><g
         transform="matrix(-1.20971,0,0,1.20971,34037.922,0)"
         id="g94"><path
           id="path96"
           style="fill:#f78248;fill-opacity:1;fill-rule:nonzero;stroke:none"
           d="m 15881.8,10446.7 c -18.6,110.4 57.6,206.7 166.2,233.5 124.9,30.7 214.9,-55.9 233.5,-166.3 18.5,-110.4 -57.7,-206.1 -166.3,-233.5 -108.3,-27.2 -214.9,55.9 -233.4,166.3" /></g><g
         transform="matrix(-1.20241,0,0,1.20241,34037.922,0)"
         id="g98"><path
           id="path100"
           style="fill:#ea7147;fill-opacity:1;fill-rule:nonzero;stroke:none"
           d="m 16068.8,10525.4 c -10.2,61 33,109.9 91.9,129 59.8,19.4 118.8,-30.9 129.1,-91.9 10.2,-61 -32.5,-111.7 -91.9,-129 -59.7,-17.5 -118.9,30.8 -129.1,91.9" /></g><g
         transform="matrix(-1.30515,0,0,1.30515,34037.922,0)"
         id="g102"><path
           id="path104"
           style="fill:#f78248;fill-opacity:1;fill-rule:nonzero;stroke:none"
           d="m 15831.3,9268.83 c -20.8,123.69 64.5,231.57 186.3,261.59 139.9,34.49 240.8,-62.63 261.6,-186.32 20.8,-123.68 -64.7,-230.99 -186.3,-261.59 -121.4,-30.53 -240.8,62.64 -261.6,186.32" /></g><g
         transform="matrix(-1.29632,0,0,1.29632,34037.922,0)"
         id="g106"><path
           id="path108"
           style="fill:#ea7147;fill-opacity:1;fill-rule:nonzero;stroke:none"
           d="m 16040.7,9349.03 c -11.5,68.42 37.1,123.28 103.1,144.71 67,21.77 133.2,-34.65 144.7,-103.07 11.5,-68.43 -36.5,-125.3 -103.1,-144.72 -67,-19.52 -133.2,34.65 -144.7,103.08" /></g><g
         transform="matrix(-1.32029,0,0,1.32029,34037.922,0)"
         id="g110"><path
           id="path112"
           style="fill:#f78248;fill-opacity:1;fill-rule:nonzero;stroke:none"
           d="m 15941.1,8783.59 c -15.9,94.72 49.4,177.34 142.7,200.34 107.1,26.41 184.4,-47.97 200.3,-142.7 15.9,-94.72 -49.5,-176.9 -142.7,-200.34 -93,-23.38 -184.4,47.98 -200.3,142.7" /></g><g
         transform="matrix(-1.31345,0,0,1.31345,34037.922,0)"
         id="g114"><path
           id="path116"
           style="fill:#ea7147;fill-opacity:1;fill-rule:nonzero;stroke:none"
           d="m 16101.7,8842.39 c -8.7,52.31 28.4,94.27 78.8,110.66 51.3,16.64 101.9,-26.5 110.7,-78.82 8.8,-52.33 -27.8,-95.81 -78.8,-110.66 -51.2,-14.92 -101.8,26.49 -110.7,78.82" /></g><path
         id="path118"
         style="fill:#ea7147;fill-opacity:1;fill-rule:nonzero;stroke:none"
         d="m 18523.122,12214.6 c 11.6,163.2 -81.8,314.2 -243.2,341.4 -161.4,27.1 -314.3,-81.8 -341.4,-243.2 -27.1,-161.4 79.3,-324 243.2,-341.4 162.7,-17.3 332.1,113.1 341.4,243.2" /><path
         id="path120"
         style="fill:#f78248;fill-opacity:1;fill-rule:nonzero;stroke:none"
         d="m 18409.022,12233.7 c 40.4,91.3 -49.8,191.7 -148.3,208.2 -98.4,16.5 -191.6,-49.8 -208.2,-148.3 -16.5,-98.4 49.9,-191.6 148.3,-208.2 98.5,-16.5 171.9,66.3 208.2,148.3" /><g
         transform="matrix(-1.07218,0,0,1.07218,34037.922,0)"
         id="g122"><path
           id="path124"
           style="fill:#ea7147;fill-opacity:1;fill-rule:nonzero;stroke:none"
           d="m 15907.6,11826.6 c -7.4,104.7 52.4,201.6 156,219 103.6,17.4 201.6,-52.4 219,-156 17.4,-103.5 -50.9,-207.8 -156,-219 -104.4,-11 -213.1,72.6 -219,156" /></g><g
         transform="matrix(-1.06693,0,0,1.06693,34037.922,0)"
         id="g126"><path
           id="path128"
           style="fill:#f78248;fill-opacity:1;fill-rule:nonzero;stroke:none"
           d="m 16059.5,11897.3 c -26.1,58.8 32.1,123.5 95.6,134.1 63.4,10.7 123.5,-32.1 134.2,-95.5 10.7,-63.5 -32.1,-123.6 -95.6,-134.2 -63.4,-10.7 -110.8,42.7 -134.2,95.6" /></g><g
         transform="matrix(-1.23953,0,0,1.23953,34037.922,0)"
         id="g130"><path
           id="path132"
           style="fill:#ea7147;fill-opacity:1;fill-rule:nonzero;stroke:none"
           d="m 15868,10144.4 c -8.2,115.3 57.7,222 171.7,241.1 114,19.2 222,-57.7 241.2,-171.7 19.1,-114 -56,-228.87 -171.8,-241.15 -114.9,-12.18 -234.6,79.85 -241.1,171.75" /></g><g
         transform="matrix(-1.23284,0,0,1.23284,34037.922,0)"
         id="g134"><path
           id="path136"
           style="fill:#f78248;fill-opacity:1;fill-rule:nonzero;stroke:none"
           d="m 16035.2,10213.1 c -28.7,64.8 35.3,136.1 105.3,147.8 69.8,11.8 136,-35.4 147.7,-105.3 11.8,-69.9 -35.3,-136.1 -105.2,-147.8 -70,-11.8 -122,47 -147.8,105.3" /></g><path
         id="path138"
         style="fill:#ea7147;fill-opacity:1;fill-rule:nonzero;stroke:none"
         d="m 20443.722,9821.2 c 9.3,132.2 -66.3,254.5 -197,276.5 -130.8,22 -254.6,-66.2 -276.6,-197 -22,-130.7 64.2,-262.4 197,-276.5 131.9,-14 269.1,91.6 276.6,197" /><path
         id="path140"
         style="fill:#f78248;fill-opacity:1;fill-rule:nonzero;stroke:none"
         d="m 20351.322,9836.7 c 32.7,73.9 -40.4,155.2 -120.2,168.6 -79.7,13.4 -155.2,-40.4 -168.6,-120.1 -13.4,-79.7 40.4,-155.2 120.1,-168.6 79.8,-13.4 139.2,53.6 168.7,120.1" /><path
         id="path142"
         style="fill:#ffc6b0;fill-opacity:1;fill-rule:nonzero;stroke:none"
         d="m 19053.722,11824.8 c 64.9,181.7 -81.7,314.3 -243.1,341.5 -161.5,27.1 -295.3,-83.8 -341.4,-243.2 -45.6,-157.3 83.8,-298.3 263.2,-328.5 161.4,-27.1 266.3,76.1 321.3,230.2" /><path
         id="path144"
         style="fill:#f78248;fill-opacity:1;fill-rule:nonzero;stroke:none"
         d="m 18907.322,11849.4 c 13.5,80.6 -46.6,137.5 -121.4,170.4 -76.7,33.6 -151.1,-7.3 -170.3,-121.4 -13.5,-80.5 27.3,-154.5 121.3,-170.3 80.6,-13.5 156.8,40.8 170.4,121.3" /><path
         id="path146"
         style="fill:#ffc6b0;fill-opacity:1;fill-rule:nonzero;stroke:none"
         d="m 19721.922,11217.7 c 64.9,181.6 -81.8,314.3 -243.2,341.4 -161.4,27.1 -295.3,-83.8 -341.4,-243.2 -45.5,-157.2 83.9,-298.3 263.3,-328.4 161.4,-27.1 266.2,76 321.3,230.2" /><path
         id="path148"
         style="fill:#f78248;fill-opacity:1;fill-rule:nonzero;stroke:none"
         d="m 19575.422,11242.3 c 13.5,80.5 -46.5,137.5 -121.3,170.3 -76.7,33.7 -151.1,-7.2 -170.3,-121.3 -13.5,-80.5 27.2,-154.5 121.3,-170.3 80.5,-13.5 156.8,40.8 170.3,121.3" /><g
         transform="matrix(-1.18302,0,0,1.18302,34037.922,0)"
         id="g150"><path
           id="path152"
           style="fill:#ffc6b0;fill-opacity:1;fill-rule:nonzero;stroke:none"
           d="m 15767.4,10823.6 c -54.9,153.5 69.1,265.6 205.6,288.6 136.4,22.9 249.6,-70.9 288.5,-205.6 38.5,-132.9 -70.8,-252.1 -222.4,-277.6 -136.6,-22.9 -225.1,64.3 -271.7,194.6" /></g><g
         transform="matrix(-1.17208,0,0,1.17208,34037.922,0)"
         id="g154"><path
           id="path156"
           style="fill:#f78248;fill-opacity:1;fill-rule:nonzero;stroke:none"
           d="m 16039.6,10945.6 c -11.5,68.7 39.8,117.3 103.5,145.3 65.5,28.8 129,-6.1 145.3,-103.4 11.6,-68.8 -23.2,-131.9 -103.5,-145.4 -68.7,-11.5 -133.7,34.8 -145.3,103.5" /></g><g
         transform="matrix(-1.11896,0,0,1.11896,34037.922,0)"
         id="g158"><path
           id="path160"
           style="fill:#ffc6b0;fill-opacity:1;fill-rule:nonzero;stroke:none"
           d="m 15831.3,11424.9 c -48.3,135.2 60.7,233.8 180.8,254 120.2,20.2 219.7,-62.3 254,-180.9 33.9,-117 -62.3,-221.9 -195.8,-244.3 -120.1,-20.2 -198.1,56.6 -239,171.2" /></g><g
         transform="matrix(-1.10984,0,0,1.10984,34037.922,0)"
         id="g162"><path
           id="path164"
           style="fill:#f78248;fill-opacity:1;fill-rule:nonzero;stroke:none"
           d="m 16071.1,11537.2 c -10.1,60.4 35,103.1 91,127.8 57.6,25.2 113.4,-5.5 127.8,-91 10.1,-60.4 -20.4,-115.9 -91,-127.7 -60.4,-10.2 -117.6,30.5 -127.8,90.9" /></g><g
         transform="matrix(-1.0497,0,0,1.0497,34037.922,0)"
         id="g166"><path
           id="path168"
           style="fill:#ffc6b0;fill-opacity:1;fill-rule:nonzero;stroke:none"
           d="m 15699.7,12128.9 c -61.8,173.1 78,299.4 231.7,325.3 153.8,25.8 281.3,-79.8 325.3,-231.7 43.3,-149.8 -79.9,-284.2 -250.9,-312.9 -153.7,-25.8 -253.6,72.5 -306.1,219.3" /></g><g
         transform="matrix(-1.03875,0,0,1.03875,34037.922,0)"
         id="g170"><path
           id="path172"
           style="fill:#f78248;fill-opacity:1;fill-rule:nonzero;stroke:none"
           d="m 16006.2,12280.4 c -13,77.5 44.8,132.4 116.8,164 73.8,32.4 145.5,-7 163.9,-116.8 13.1,-77.5 -26.2,-148.7 -116.8,-164 -77.5,-13 -150.9,39.3 -163.9,116.8" /></g><g
         transform="matrix(-1.2589,0,0,1.2589,34037.922,0)"
         id="g174"><path
           id="path176"
           style="fill:#f78248;fill-opacity:1;fill-rule:nonzero;stroke:none"
           d="m 16278.5,3193.51 c 21.5,-128.2 -67,-240.05 -193.2,-271.19 -145.1,-35.74 -249.7,64.9 -271.2,193.19 -21.5,128.21 67,239.5 193.2,271.19 125.8,31.61 249.6,-64.98 271.2,-193.19" /></g><g
         transform="matrix(-1.25007,0,0,1.25007,34037.922,0)"
         id="g178"><path
           id="path180"
           style="fill:#ea7147;fill-opacity:1;fill-rule:nonzero;stroke:none"
           d="m 16288.1,3198.39 c 11.9,-70.96 -38.5,-127.84 -106.9,-150.07 -69.5,-22.56 -138.1,35.91 -150.1,106.87 -11.9,70.96 37.8,129.91 106.9,150.07 69.4,20.24 138.2,-35.92 150.1,-106.87" /></g><g
         transform="matrix(-1.13152,0,0,1.13152,34037.922,0)"
         id="g182"><path
           id="path184"
           style="fill:#f78248;fill-opacity:1;fill-rule:nonzero;stroke:none"
           d="m 16276,3111.58 c 24,-142.64 -74.5,-267.07 -214.9,-301.72 -161.4,-39.77 -277.7,72.29 -301.8,214.93 -23.9,142.64 74.7,266.46 214.9,301.72 140.1,35.27 277.8,-72.2 301.8,-214.93" /></g><g
         transform="matrix(-1.12269,0,0,1.12269,34037.922,0)"
         id="g186"><path
           id="path188"
           style="fill:#ea7147;fill-opacity:1;fill-rule:nonzero;stroke:none"
           d="m 16286.7,3116.36 c 13.3,-79 -42.8,-142.33 -119.1,-167.1 -77.4,-25.11 -153.8,40 -167.1,119 -13.2,79.01 42.2,144.74 119,167.1 77.4,22.54 154,-39.99 167.2,-119" /></g><g
         transform="matrix(-1.17638,0,0,1.17638,34037.922,0)"
         id="g190"><path
           id="path192"
           style="fill:#f78248;fill-opacity:1;fill-rule:nonzero;stroke:none"
           d="m 16280.9,3049.95 c 19.1,-113.57 -59.3,-212.6 -171.1,-240.14 -128.3,-31.71 -221,57.46 -240.1,171.03 -19,113.57 59.4,212.09 171,240.14 111.5,28.06 221.1,-57.46 240.2,-171.03" /></g><g
         transform="matrix(-1.16907,0,0,1.16907,34037.922,0)"
         id="g194"><path
           id="path196"
           style="fill:#ea7147;fill-opacity:1;fill-rule:nonzero;stroke:none"
           d="m 16289.5,3053.36 c 10.5,-62.79 -34.1,-113.17 -94.6,-132.76 -61.5,-20.01 -122.3,31.74 -132.8,94.52 -10.6,62.79 33.5,114.97 94.5,132.76 61.5,17.96 122.3,-31.74 132.9,-94.52" /></g><g
         transform="matrix(-1.06242,0,0,1.06242,34037.922,0)"
         id="g198"><path
           id="path200"
           style="fill:#f78248;fill-opacity:1;fill-rule:nonzero;stroke:none"
           d="m 16278.9,3606.19 c 21.1,-125.75 -65.6,-235.31 -189.4,-265.81 -142.1,-35.01 -244.6,63.63 -265.7,189.29 -21.2,125.65 65.7,234.74 189.3,265.81 123.4,31.06 244.6,-63.63 265.8,-189.29" /></g><g
         transform="matrix(-1.05512,0,0,1.05512,34037.922,0)"
         id="g202"><path
           id="path204"
           style="fill:#ea7147;fill-opacity:1;fill-rule:nonzero;stroke:none"
           d="m 16288.3,3613.8 c 11.7,-69.57 -37.7,-125.3 -104.8,-147.09 -68,-22.09 -135.3,35.25 -147,104.72 -11.6,69.57 37.1,127.38 104.8,147.09 68,19.81 135.3,-35.25 147,-104.72" /></g><g
         transform="matrix(-1.2886,0,0,1.2886,34037.922,0)"
         id="g206"><path
           id="path208"
           style="fill:#ea7147;fill-opacity:1;fill-rule:nonzero;stroke:none"
           d="m 16291,3301.41 c 9,-126.73 -63.4,-243.91 -188.7,-264.94 -125.3,-21.03 -243.9,63.48 -265,188.73 -21,125.26 61.6,251.44 188.8,264.94 126.3,13.35 257.8,-87.77 264.9,-188.73" /></g><g
         transform="matrix(-1.28337,0,0,1.28337,34037.922,0)"
         id="g210"><path
           id="path212"
           style="fill:#f78248;fill-opacity:1;fill-rule:nonzero;stroke:none"
           d="m 16268.5,3299.89 c 31.5,-71.06 -38.9,-149.29 -115.5,-162.15 -76.8,-12.93 -149.4,38.81 -162.3,115.48 -12.9,76.75 38.8,149.37 115.6,162.23 76.7,12.94 133.9,-51.58 162.2,-115.56" /></g><g
         transform="matrix(-1.19383,0,0,1.19383,34037.922,0)"
         id="g214"><path
           id="path216"
           style="fill:#ea7147;fill-opacity:1;fill-rule:nonzero;stroke:none"
           d="m 16293.4,3173.39 c 6.6,-94.07 -47.2,-181.1 -140.2,-196.68 -92.9,-15.66 -181,47.08 -196.6,140.05 -15.6,92.98 45.6,186.63 140.1,196.68 93.7,9.97 191.3,-65.16 196.7,-140.05" /></g><g
         transform="matrix(-1.19024,0,0,1.19024,34037.922,0)"
         id="g218"><path
           id="path220"
           style="fill:#f78248;fill-opacity:1;fill-rule:nonzero;stroke:none"
           d="m 16276.6,3171.88 c 23.4,-52.76 -28.8,-110.73 -85.7,-120.31 -56.8,-9.58 -110.7,28.82 -120.2,85.7 -9.6,56.88 28.7,110.73 85.6,120.31 56.9,9.5 99.3,-38.31 120.3,-85.7" /></g><g
         transform="matrix(-1.03366,0,0,1.03366,34037.922,0)"
         id="g222"><path
           id="path224"
           style="fill:#ea7147;fill-opacity:1;fill-rule:nonzero;stroke:none"
           d="m 16290.2,3767.67 c 9.8,-138.34 -69.2,-266.24 -205.9,-289.16 -136.8,-23.03 -266.3,69.17 -289.2,205.86 -23,136.8 67.1,274.47 206,289.17 137.8,14.61 281.3,-95.77 289.1,-205.87" /></g><g
         transform="matrix(-1.02909,0,0,1.02909,34037.922,0)"
         id="g226"><path
           id="path228"
           style="fill:#f78248;fill-opacity:1;fill-rule:nonzero;stroke:none"
           d="m 16265.6,3768.1 c 34.4,-77.64 -42.4,-163.05 -126.1,-177.14 -83.8,-14.1 -163.1,42.46 -177.2,126.12 -14.1,83.77 42.5,163.06 126.2,177.15 83.7,14.09 146.2,-56.36 177.1,-126.13" /></g><g
         transform="matrix(-1.32443,0,0,1.32443,34037.922,0)"
         id="g230"><path
           id="path232"
           style="fill:#ffc6b0;fill-opacity:1;fill-rule:nonzero;stroke:none"
           d="m 16251,3506.34 c 49,-137.12 -61.8,-237.24 -183.6,-257.77 -121.9,-20.46 -223,63.27 -257.8,183.62 -34.4,118.7 63.3,225.23 198.8,247.96 121.9,20.54 201,-57.38 242.6,-173.81" /></g><g
         transform="matrix(-1.31229,0,0,1.31229,34037.922,0)"
         id="g234"><path
           id="path236"
           style="fill:#f78248;fill-opacity:1;fill-rule:nonzero;stroke:none"
           d="m 16289.7,3520.03 c 10.3,-61.34 -35.4,-104.7 -92.4,-129.77 -58.5,-25.68 -115.2,5.56 -129.8,92.44 -10.3,61.34 20.7,117.73 92.4,129.77 61.4,10.36 119.5,-31.01 129.8,-92.44" /></g><g
         transform="matrix(-1.09933,0,0,1.09933,34037.922,0)"
         id="g238"><path
           id="path240"
           style="fill:#ffc6b0;fill-opacity:1;fill-rule:nonzero;stroke:none"
           d="m 16241,3333.12 c 59,-165.19 -74.4,-285.9 -221.3,-310.55 -146.8,-24.66 -268.5,76.22 -310.5,221.22 -41.4,143 76.3,271.35 239.5,298.73 146.8,24.74 242.1,-69.14 292.3,-209.4" /></g><g
         transform="matrix(-1.0872,0,0,1.0872,34037.922,0)"
         id="g242"><path
           id="path244"
           style="fill:#f78248;fill-opacity:1;fill-rule:nonzero;stroke:none"
           d="m 16287.5,3347.69 c 12.5,-74.04 -42.8,-126.47 -111.6,-156.64 -70.5,-30.99 -139,6.72 -156.6,111.57 -12.4,74.05 25.1,142.11 111.6,156.64 74,12.51 144.2,-37.52 156.6,-111.57" /></g><g
         transform="matrix(-1.15626,0,0,1.15626,34037.922,0)"
         id="g246"><path
           id="path248"
           style="fill:#ffc6b0;fill-opacity:1;fill-rule:nonzero;stroke:none"
           d="m 16253.3,3186.83 c 46.7,-130.76 -58.9,-226.24 -175.1,-245.79 -116.2,-19.55 -212.5,60.28 -245.8,175.05 -32.7,113.21 60.4,214.74 189.5,236.45 116.3,19.55 191.7,-54.74 231.4,-165.71" /></g><g
         transform="matrix(-1.14615,0,0,1.14615,34037.922,0)"
         id="g250"><path
           id="path252"
           style="fill:#f78248;fill-opacity:1;fill-rule:nonzero;stroke:none"
           d="m 16290.1,3197.04 c 9.9,-58.54 -33.7,-99.9 -88,-123.72 -55.7,-24.43 -109.8,5.24 -123.7,88.12 -9.9,58.46 19.8,112.21 88.1,123.72 58.5,9.77 113.9,-29.66 123.6,-88.12" /></g><g
         transform="matrix(-1.23266,0,0,1.23266,34037.922,0)"
         id="g254"><path
           id="path256"
           style="fill:#ffc6b0;fill-opacity:1;fill-rule:nonzero;stroke:none"
           d="m 16247.4,3031.75 c 52.6,-147.41 -66.3,-254.98 -197.3,-277.05 -131,-21.98 -239.5,67.98 -277,197.3 -36.9,127.61 68.1,242 213.6,266.5 130.9,21.98 216,-61.74 260.7,-186.75" /></g><g
         transform="matrix(-1.22052,0,0,1.22052,34037.922,0)"
         id="g258"><path
           id="path260"
           style="fill:#f78248;fill-opacity:1;fill-rule:nonzero;stroke:none"
           d="m 16288.9,3041.65 c 11.1,-65.96 -38.1,-112.57 -99.4,-139.53 -62.9,-27.61 -123.8,5.98 -139.6,99.38 -11,66.04 22.4,126.59 99.4,139.53 66.1,11.15 128.5,-33.34 139.6,-99.38" /></g><g
         transform="matrix(-1.42879,0,0,1.42879,34037.922,0)"
         id="g262"><path
           id="path264"
           style="fill:#f78248;fill-opacity:1;fill-rule:nonzero;stroke:none"
           d="m 16131,6012.94 c 110.8,-28.76 169,-140.19 148.6,-252.87 -23.3,-129.55 -142,-177.49 -252.9,-148.66 -110.9,28.77 -168.5,140.05 -148.7,252.87 19.8,112.62 142,177.5 253,148.66" /></g><g
         transform="matrix(-1.41966,0,0,1.41966,34037.922,0)"
         id="g266"><path
           id="path268"
           style="fill:#ea7147;fill-opacity:1;fill-rule:nonzero;stroke:none"
           d="m 16211,5960.6 c 61.4,-15.92 89,-76.92 82.2,-139.9 -6.8,-63.95 -78.5,-98.12 -139.8,-82.2 -61.3,15.92 -90.9,77.13 -82.2,139.89 8.7,63.05 78.6,98.13 139.8,82.21" /></g><g
         transform="matrix(-1.40476,0,0,1.40476,34037.922,0)"
         id="g270"><path
           id="path272"
           style="fill:#f78248;fill-opacity:1;fill-rule:nonzero;stroke:none"
           d="m 16128,4621.35 c 112.8,-29.32 172,-142.58 151.2,-257.26 -23.8,-131.7 -144.4,-180.46 -257.2,-151.2 -112.8,29.26 -171.4,142.51 -151.2,257.27 20.2,114.54 144.5,180.45 257.2,151.19" /></g><g
         transform="matrix(-1.39563,0,0,1.39563,34037.922,0)"
         id="g274"><path
           id="path276"
           style="fill:#ea7147;fill-opacity:1;fill-rule:nonzero;stroke:none"
           d="m 16209.5,4558.94 c 62.4,-16.19 90.5,-78.17 83.6,-142.23 -6.9,-65.13 -79.9,-99.81 -142.3,-83.62 -62.3,16.19 -92.3,78.39 -83.6,142.23 8.9,64.2 79.9,99.81 142.3,83.62" /></g><g
         transform="matrix(-1.41688,0,0,1.41688,34037.922,0)"
         id="g278"><path
           id="path280"
           style="fill:#f78248;fill-opacity:1;fill-rule:nonzero;stroke:none"
           d="m 16159,5075.32 c 92.5,-24 141,-116.95 124,-211.03 -19.5,-108.06 -118.5,-148.07 -211,-124.01 -92.6,24 -140.6,116.88 -124,211.03 16.5,93.94 118.5,148.07 211,124.01" /></g><g
         transform="matrix(-1.40933,0,0,1.40933,34037.922,0)"
         id="g282"><path
           id="path284"
           style="fill:#ea7147;fill-opacity:1;fill-rule:nonzero;stroke:none"
           d="m 16225.9,5026.66 c 51.1,-13.27 74.1,-64.07 68.5,-116.58 -5.7,-53.36 -65.5,-81.81 -116.6,-68.54 -51.1,13.27 -75.7,64.28 -68.5,116.58 7.2,52.58 65.5,81.81 116.6,68.54" /></g><g
         transform="matrix(-1.35672,0,0,1.35672,34037.922,0)"
         id="g286"><path
           id="path288"
           style="fill:#f78248;fill-opacity:1;fill-rule:nonzero;stroke:none"
           d="m 16152.8,4123.76 c 96.6,-25.06 147.2,-122.06 129.4,-220.24 -20.3,-112.84 -123.6,-154.56 -220.2,-129.5 -96.6,25.06 -146.8,121.98 -129.5,220.31 17.2,98.1 123.7,154.56 220.3,129.43" /></g><g
         transform="matrix(-1.34917,0,0,1.34917,34037.922,0)"
         id="g290"><path
           id="path292"
           style="fill:#ea7147;fill-opacity:1;fill-rule:nonzero;stroke:none"
           d="m 16222.6,4067.61 c 53.4,-13.86 77.4,-66.86 71.5,-121.71 -5.9,-55.66 -68.3,-85.38 -121.7,-71.52 -53.3,13.86 -79,67.07 -71.5,121.7 7.6,54.92 68.4,85.39 121.7,71.53" /></g><g
         transform="matrix(-1.42894,0,0,1.42894,34037.922,0)"
         id="g294"><path
           id="path296"
           style="fill:#ea7147;fill-opacity:1;fill-rule:nonzero;stroke:none"
           d="m 16122.6,6398.39 c 107.6,-39.26 177.4,-142 148.6,-252.85 -28.8,-110.92 -142,-177.47 -252.9,-148.64 -110.8,28.76 -184.3,143.18 -148.6,252.84 35.5,108.97 167.2,179.93 252.9,148.65" /></g><g
         transform="matrix(-1.42109,0,0,1.42109,34037.922,0)"
         id="g298"><path
           id="path300"
           style="fill:#f78248;fill-opacity:1;fill-rule:nonzero;stroke:none"
           d="m 16191.2,6355 c 70.2,-0.28 108.8,-87.12 91.1,-155.09 -17.6,-67.98 -87,-108.79 -155,-91.13 -68,17.66 -108.8,87.05 -91.1,155.09 17.6,67.98 91.9,91.34 155,91.13" /></g><g
         transform="matrix(-1.41157,0,0,1.41157,34037.922,0)"
         id="g302"><path
           id="path304"
           style="fill:#ea7147;fill-opacity:1;fill-rule:nonzero;stroke:none"
           d="m 16176.5,5345.82 c 74.9,-27.35 123.5,-98.9 103.5,-176.05 -20.1,-77.22 -98.9,-123.55 -176.1,-103.5 -77.1,20.05 -128.4,99.68 -103.5,176.05 24.7,75.8 116.4,125.25 176.1,103.5" /></g><g
         transform="matrix(-1.40617,0,0,1.40617,34037.922,0)"
         id="g306"><path
           id="path308"
           style="fill:#f78248;fill-opacity:1;fill-rule:nonzero;stroke:none"
           d="m 16224.4,5311.58 c 48.8,-0.21 75.6,-60.51 63.3,-107.8 -12.2,-47.23 -60.5,-75.6 -107.7,-63.3 -47.3,12.23 -75.6,60.52 -63.4,107.74 12.3,47.29 63.9,63.51 107.8,63.36" /></g><g
         transform="matrix(-1.34312,0,0,1.34312,34037.922,0)"
         id="g310"><path
           id="path312"
           style="fill:#ea7147;fill-opacity:1;fill-rule:nonzero;stroke:none"
           d="m 16134.7,3874.5 c 100.2,-36.56 165.3,-132.31 138.4,-235.58 -26.8,-103.26 -132.2,-165.21 -235.5,-138.4 -103.2,26.8 -171.7,133.34 -138.4,235.49 33,101.48 155.7,167.6 235.5,138.49" /></g><g
         transform="matrix(-1.33624,0,0,1.33624,34037.922,0)"
         id="g314"><path
           id="path316"
           style="fill:#f78248;fill-opacity:1;fill-rule:nonzero;stroke:none"
           d="m 16198.7,3821.1 c 65.4,-0.23 101.3,-81.13 84.9,-144.36 -16.5,-63.32 -81.1,-101.33 -144.4,-84.87 -63.3,16.39 -101.3,81.05 -84.8,144.36 16.4,63.31 85.5,85.09 144.3,84.87" /></g><g
         transform="matrix(-1.42041,0,0,1.42041,34037.922,0)"
         id="g318"><path
           id="path320"
           style="fill:#ffc6b0;fill-opacity:1;fill-rule:nonzero;stroke:none"
           d="m 16121.5,6889.94 c 135.4,-10.56 178.5,-142.92 149.5,-254.44 -28.9,-111.52 -138.7,-165.73 -254.4,-149.53 -114.2,15.91 -167.6,139.6 -135.4,263.58 29,111.52 125.4,149.26 240.3,140.39" /></g><g
         transform="matrix(-1.40909,0,0,1.40909,34037.922,0)"
         id="g322"><path
           id="path324"
           style="fill:#f78248;fill-opacity:1;fill-rule:nonzero;stroke:none"
           d="m 16224.4,6843.2 c 56.1,-14.55 75.6,-69.97 75.2,-127.95 -0.4,-59.47 -48.5,-95.81 -127.9,-75.16 -56.1,14.55 -92.2,62.38 -75.2,127.88 14.6,56.14 71.9,89.78 127.9,75.23" /></g><g
         transform="matrix(-1.38338,0,0,1.38338,34037.922,0)"
         id="g326"><path
           id="path328"
           style="fill:#ffc6b0;fill-opacity:1;fill-rule:nonzero;stroke:none"
           d="m 16116.8,4364.02 c 139,-10.77 183.2,-146.67 153.5,-261.24 -29.7,-114.51 -142.4,-170.09 -261.3,-153.54 -117.1,16.33 -172,143.34 -139,270.64 29.7,114.57 128.8,153.25 246.8,144.14" /></g><g
         transform="matrix(-1.37207,0,0,1.37207,34037.922,0)"
         id="g330"><path
           id="path332"
           style="fill:#f78248;fill-opacity:1;fill-rule:nonzero;stroke:none"
           d="m 16222.4,4295.18 c 57.6,-14.94 77.6,-71.87 77.2,-131.41 -0.4,-61.08 -49.8,-98.39 -131.4,-77.18 -57.6,14.94 -94.7,64.06 -77.2,131.41 14.9,57.57 73.7,92.12 131.4,77.18" /></g><g
         transform="matrix(-1.40314,0,0,1.40314,34037.922,0)"
         id="g334"><path
           id="path336"
           style="fill:#ffc6b0;fill-opacity:1;fill-rule:nonzero;stroke:none"
           d="m 16149.6,4919.27 c 114.1,-8.84 150.4,-120.37 126,-214.38 -24.4,-94 -116.9,-139.61 -214.4,-126 -96.2,13.47 -141.2,117.67 -114.1,222.14 24.4,94.01 105.7,125.79 202.5,118.24" /></g><g
         transform="matrix(-1.39372,0,0,1.39372,34037.922,0)"
         id="g338"><path
           id="path340"
           style="fill:#f78248;fill-opacity:1;fill-rule:nonzero;stroke:none"
           d="m 16236.4,4866.7 c 47.2,-12.27 63.6,-58.91 63.3,-107.7 -0.3,-50.08 -40.8,-80.65 -107.7,-63.29 -47.2,12.27 -77.5,52.52 -63.3,107.7 12.3,47.14 60.5,75.48 107.7,63.29" /></g><g
         transform="matrix(-1.43373,0,0,1.43373,34037.922,0)"
         id="g342"><path
           id="path344"
           style="fill:#ffc6b0;fill-opacity:1;fill-rule:nonzero;stroke:none"
           d="m 16123.2,5615.21 c 134.1,-10.39 176.8,-141.52 148.1,-252.07 -28.7,-110.48 -137.4,-164.11 -252,-148.14 -113.1,15.83 -166.1,138.31 -134.2,261.14 28.7,110.55 124.3,147.86 238.1,139.07" /></g><g
         transform="matrix(-1.42242,0,0,1.42242,34037.922,0)"
         id="g346"><path
           id="path348"
           style="fill:#f78248;fill-opacity:1;fill-rule:nonzero;stroke:none"
           d="m 16225.1,5558.78 c 55.6,-14.41 74.9,-69.32 74.5,-126.69 -0.4,-58.91 -48,-94.98 -126.7,-74.52 -55.5,14.41 -91.3,61.8 -74.5,126.76 14.5,55.54 71.2,88.86 126.7,74.45" /></g><path
         id="path350"
         style="fill:#f78248;fill-opacity:1;fill-rule:nonzero;stroke:none"
         d="m 18771.322,4462.5 c 136.8,-89.9 310.6,-44.8 410.6,84.8 114.8,148.8 52,320.5 -84.8,410.5 -136.7,89.9 -309.9,44.4 -410.5,-84.7 -100.4,-128.9 -52,-320.6 84.7,-410.6" /><path
         id="path352"
         style="fill:#ea7147;fill-opacity:1;fill-rule:nonzero;stroke:none"
         d="m 18844.722,4574.1 c 75.2,-49.4 165.7,-20.5 225.6,46.5 60.9,68.2 28.6,176.2 -46.5,225.6 -75.2,49.5 -167.7,22.3 -225.6,-46.5 -58.2,-69.2 -28.6,-176.2 46.5,-225.6" /><path
         id="path354"
         style="fill:#f78248;fill-opacity:1;fill-rule:nonzero;stroke:none"
         d="m 20066.322,6160.7 c 136.7,-90 310.5,-44.9 410.5,84.7 114.9,148.9 52.1,320.5 -84.7,410.5 -136.7,90 -309.9,44.4 -410.5,-84.7 -100.4,-128.9 -52.1,-320.5 84.7,-410.5" /><path
         id="path356"
         style="fill:#ea7147;fill-opacity:1;fill-rule:nonzero;stroke:none"
         d="m 20139.722,6272.3 c 75.1,-49.5 165.6,-20.6 225.6,46.5 60.8,68.1 28.6,176.1 -46.6,225.6 -75.1,49.4 -167.7,22.3 -225.6,-46.6 -58.1,-69.2 -28.6,-176.1 46.6,-225.5" /><path
         id="path358"
         style="fill:#f78248;fill-opacity:1;fill-rule:nonzero;stroke:none"
         d="m 19707.922,5514.4 c 113.2,-74.5 257,-37.2 339.7,70.1 95,123.1 43.1,265.2 -70.1,339.6 -113.1,74.5 -256.4,36.8 -339.7,-70.1 -83.1,-106.6 -43,-265.2 70.1,-339.6" /><path
         id="path360"
         style="fill:#ea7147;fill-opacity:1;fill-rule:nonzero;stroke:none"
         d="m 19768.622,5606.7 c 62.2,-40.9 137.1,-17 186.7,38.5 50.4,56.3 23.7,145.7 -38.5,186.6 -62.2,40.9 -138.8,18.5 -186.7,-38.5 -48.1,-57.2 -23.6,-145.7 38.5,-186.6" /><path
         id="path362"
         style="fill:#f78248;fill-opacity:1;fill-rule:nonzero;stroke:none"
         d="m 20234.922,7312.1 c 113.1,-74.5 256.8,-37.2 339.5,70 95,123.2 43.1,265.1 -70,339.6 -113.2,74.4 -256.4,36.7 -339.6,-70.1 -83,-106.6 -43,-265.1 70.1,-339.5" /><path
         id="path364"
         style="fill:#ea7147;fill-opacity:1;fill-rule:nonzero;stroke:none"
         d="m 20295.622,7404.3 c 62.1,-40.9 137,-17 186.5,38.5 50.4,56.4 23.7,145.7 -38.4,186.6 -62.2,40.9 -138.7,18.4 -186.6,-38.5 -48.1,-57.3 -23.7,-145.7 38.5,-186.6" /><path
         id="path366"
         style="fill:#ea7147;fill-opacity:1;fill-rule:nonzero;stroke:none"
         d="m 18355.622,4099.7 c 144.8,-76.5 320.6,-52 410.5,84.7 90,136.8 52.1,320.6 -84.7,410.5 -136.7,90 -328.4,58.3 -410.5,-84.7 -81.5,-142 -30.5,-349.6 84.7,-410.5" /><path
         id="path368"
         style="fill:#f78248;fill-opacity:1;fill-rule:nonzero;stroke:none"
         d="m 18419.222,4196.3 c 67.2,-73.8 195.5,-31.7 250.3,51.7 54.9,83.4 31.8,195.4 -51.6,250.3 -83.4,54.9 -195.5,31.7 -250.4,-51.6 -54.8,-83.4 -8.7,-184 51.7,-250.4" /><path
         id="path370"
         style="fill:#ea7147;fill-opacity:1;fill-rule:nonzero;stroke:none"
         d="m 19403.722,5321.7 c 99.5,-52.6 220.5,-35.8 282.3,58.3 61.9,94 35.8,220.4 -58.2,282.3 -94.1,61.9 -225.9,40 -282.3,-58.3 -56.1,-97.6 -21.1,-240.4 58.2,-282.3" /><path
         id="path372"
         style="fill:#f78248;fill-opacity:1;fill-rule:nonzero;stroke:none"
         d="m 19447.422,5388.2 c 46.2,-50.8 134.5,-21.9 172.2,35.5 37.7,57.3 21.8,134.4 -35.5,172.1 -57.4,37.8 -134.5,21.9 -172.2,-35.5 -37.7,-57.3 -6,-126.5 35.5,-172.1" /><path
         id="path374"
         style="fill:#ea7147;fill-opacity:1;fill-rule:nonzero;stroke:none"
         d="m 20361.322,7755.3 c 126.7,-67 280.6,-45.6 359.4,74.1 78.8,119.7 45.5,280.6 -74.2,359.4 -119.7,78.7 -287.5,51 -359.3,-74.2 -71.4,-124.3 -26.8,-306 74.1,-359.3" /><path
         id="path376"
         style="fill:#f78248;fill-opacity:1;fill-rule:nonzero;stroke:none"
         d="m 20417.022,7839.8 c 58.8,-64.6 171.1,-27.7 219.1,45.3 48,73 27.8,171.1 -45.2,219.1 -73,48 -171.1,27.8 -219.2,-45.2 -48,-73 -7.6,-161.1 45.3,-219.2" /><g
         transform="matrix(-1.0076,0,0,1.0076,34037.922,0)"
         id="g378"><path
           id="path380"
           style="fill:#ffc6b0;fill-opacity:1;fill-rule:nonzero;stroke:none"
           d="m 16130.4,3743.05 c -139,-131.7 -318.1,-51.71 -407.4,84.06 -89.3,135.67 -42.2,301.61 84,407.4 124.6,104.31 304.5,43.27 403.7,-107.58 89.3,-135.67 37.6,-272.13 -80.3,-383.88" /></g><path
         id="path382"
         style="fill:#f78248;fill-opacity:1;fill-rule:nonzero;stroke:none"
         d="m 17866.522,3895.5 c 68.2,-44.8 144.6,-12.9 204.8,42.3 61.8,56.6 54.4,141.2 -42.2,204.8 -68.3,44.9 -152.4,37.4 -204.8,-42.3 -44.9,-68.2 -26,-159.9 42.2,-204.8" /><path
         id="path384"
         style="fill:#ffc6b0;fill-opacity:1;fill-rule:nonzero;stroke:none"
         d="m 20162.022,6733.1 c 140.1,-132.7 320.6,-52.1 410.6,84.7 89.9,136.7 42.5,303.9 -84.7,410.5 -125.5,105.1 -306.8,43.6 -406.8,-108.3 -90,-136.8 -37.9,-274.3 80.9,-386.9" /><path
         id="path386"
         style="fill:#f78248;fill-opacity:1;fill-rule:nonzero;stroke:none"
         d="m 20243.722,6857.2 c 68.2,-44.9 144.6,-12.9 204.8,42.2 61.8,56.6 54.3,141.2 -42.3,204.8 -68.2,44.9 -152.3,37.4 -204.8,-42.3 -44.8,-68.2 -25.9,-159.9 42.3,-204.7" /><path
         id="path388"
         style="fill:#ffc6b0;fill-opacity:1;fill-rule:nonzero;stroke:none"
         d="m 19764.422,5882.5 c 116.5,-110.5 266.8,-43.4 341.7,70.5 74.9,113.8 35.4,253 -70.5,341.7 -104.5,87.5 -255.4,36.3 -338.6,-90.2 -74.9,-113.8 -31.5,-228.3 67.4,-322" /><path
         id="path390"
         style="fill:#f78248;fill-opacity:1;fill-rule:nonzero;stroke:none"
         d="m 19832.322,5985.7 c 56.8,-37.3 120.4,-10.7 170.5,35.2 51.4,47.1 45.3,117.6 -35.2,170.5 -56.8,37.3 -126.8,31.1 -170.4,-35.2 -37.4,-56.8 -21.6,-133.1 35.1,-170.5" /><path
         id="path392"
         style="fill:#ffc6b0;fill-opacity:1;fill-rule:nonzero;stroke:none"
         d="m 19218.322,4774.1 c 140.1,-132.7 320.6,-52.1 410.6,84.7 89.9,136.7 42.5,304 -84.7,410.5 -125.5,105.1 -306.8,43.7 -406.8,-108.3 -90,-136.8 -37.9,-274.3 80.9,-386.9" /><path
         id="path394"
         style="fill:#f78248;fill-opacity:1;fill-rule:nonzero;stroke:none"
         d="m 19300.022,4898.2 c 68.2,-44.9 144.6,-12.9 204.8,42.2 61.8,56.6 54.3,141.2 -42.3,204.8 -68.2,44.9 -152.3,37.4 -204.8,-42.2 -44.8,-68.3 -25.9,-159.9 42.3,-204.8" /><g
         transform="matrix(-1.40494,0,0,1.40494,34037.922,0)"
         id="g396"><path
           id="path398"
           style="fill:#f78248;fill-opacity:1;fill-rule:nonzero;stroke:none"
           d="m 16017.4,7324.81 c 114.3,22.22 216.5,-54.47 247.2,-166.86 35.4,-129.06 -52.4,-225.08 -166.8,-247.36 -114.4,-22.21 -216,54.67 -247.4,166.91 -31.1,111.99 52.6,225.08 167,247.31" /></g><g
         transform="matrix(-1.39572,0,0,1.39572,34037.922,0)"
         id="g400"><path
           id="path402"
           style="fill:#ea7147;fill-opacity:1;fill-rule:nonzero;stroke:none"
           d="m 16141.4,7279.28 c 63.2,12.3 115.3,-31.52 136.8,-92.28 21.8,-61.74 -29.1,-124.5 -92.3,-136.82 -63.2,-12.26 -117.2,30.95 -136.8,92.28 -19.7,61.73 29,124.53 92.3,136.82" /></g><g
         transform="matrix(-1.38869,0,0,1.38869,34037.922,0)"
         id="g404"><path
           id="path406"
           style="fill:#ea7147;fill-opacity:1;fill-rule:nonzero;stroke:none"
           d="m 16027.3,7766.03 c 117.3,11.34 227.8,-53.09 250.2,-168.8 22.5,-115.71 -53,-227.74 -168.8,-250.23 -115.7,-22.48 -234.7,51.15 -250.2,168.81 -15.4,116.86 75.3,241.2 168.8,250.22" /></g><g
         transform="matrix(-1.38098,0,0,1.38098,34037.922,0)"
         id="g408"><path
           id="path410"
           style="fill:#f78248;fill-opacity:1;fill-rule:nonzero;stroke:none"
           d="m 16132.8,7727.19 c 65.3,30.94 139.6,-32.56 153.4,-103.51 13.8,-70.96 -32.5,-139.65 -103.5,-153.43 -71,-13.79 -139.6,32.55 -153.5,103.51 -13.7,70.95 44.9,125.62 103.6,153.43" /></g><g
         transform="matrix(-1.36396,0,0,1.36396,34037.922,0)"
         id="g412"><path
           id="path414"
           style="fill:#ffc6b0;fill-opacity:1;fill-rule:nonzero;stroke:none"
           d="m 16022.4,8288.52 c 131.9,50.95 231.9,-54.06 254.7,-171.87 22.9,-117.8 -55.8,-217.97 -171.8,-254.76 -114.4,-36.29 -220.2,55.9 -245.6,186.83 -23,117.81 50.7,196.55 162.7,239.8" /></g><g
         transform="matrix(-1.35528,0,0,1.35528,34037.922,0)"
         id="g416"><path
           id="path418"
           style="fill:#f78248;fill-opacity:1;fill-rule:nonzero;stroke:none"
           d="m 16145.8,8233.98 c 59.2,11.49 102.3,-31.75 127.9,-86.28 26.3,-55.96 -2.5,-111.62 -86.2,-127.9 -59.2,-11.49 -114.5,17.2 -128,86.28 -11.5,59.14 27.2,116.41 86.3,127.9" /></g><g
         transform="matrix(-1.34453,0,0,1.34453,34037.922,0)"
         id="g420"><path
           id="path422"
           style="fill:#ffc6b0;fill-opacity:1;fill-rule:nonzero;stroke:none"
           d="m 16085.9,8725.41 c 101.7,39.28 178.8,-41.68 196.4,-132.52 17.7,-90.84 -43.1,-168.07 -132.5,-196.43 -88.2,-27.99 -169.8,43.1 -189.4,144.05 -17.6,90.84 39.2,151.56 125.5,184.9" /></g><g
         transform="matrix(-1.33794,0,0,1.33794,34037.922,0)"
         id="g424"><path
           id="path426"
           style="fill:#f78248;fill-opacity:1;fill-rule:nonzero;stroke:none"
           d="m 16181.3,8685.59 c 45.5,8.84 78.7,-24.45 98.4,-66.43 20.3,-43.09 -1.9,-85.95 -66.4,-98.48 -45.5,-8.85 -88.1,13.24 -98.4,66.43 -8.9,45.53 20.8,89.63 66.4,98.48" /></g><path
         id="path428"
         style="fill:#ffc6b0;fill-opacity:1;fill-rule:nonzero;stroke:none"
         d="m 20165.022,10327.7 c 65,181.7 -81.7,314.3 -243.1,341.4 -161.5,27.2 -295.3,-83.8 -341.4,-243.2 -45.6,-157.2 83.8,-298.2 263.2,-328.4 161.5,-27.1 266.3,76.1 321.3,230.2" /><path
         id="path430"
         style="fill:#f78248;fill-opacity:1;fill-rule:nonzero;stroke:none"
         d="m 20018.622,10352.3 c 13.5,80.6 -46.6,137.5 -121.3,170.3 -76.8,33.7 -151.2,-7.2 -170.3,-121.3 -13.6,-80.5 27.2,-154.5 121.3,-170.3 80.5,-13.5 156.7,40.8 170.3,121.3" /><path
         id="path432"
         style="fill:#ea7147;fill-opacity:1;fill-rule:nonzero;stroke:none"
         d="m 20624.222,8693.8 c 51.5,122.2 19.3,262.3 -97.4,325.3 -116.7,62.9 -262.3,19.3 -325.2,-97.4 -63,-116.8 -23.8,-269.2 97.4,-325.3 120.3,-55.7 284.2,0.1 325.2,97.4" /><path
         id="path434"
         style="fill:#f78248;fill-opacity:1;fill-rule:nonzero;stroke:none"
         d="m 20541.722,8738.3 c 54.9,59.4 11.8,159.9 -59.3,198.3 -71.2,38.4 -160,11.8 -198.4,-59.4 -38.4,-71.2 -11.8,-160 59.4,-198.3 71.2,-38.4 149.1,5.9 198.3,59.4" /><path
         id="path436"
         style="fill:#ffc6b0;fill-opacity:1;fill-rule:nonzero;stroke:none"
         d="m 20570.622,9195 c 120,151 23.9,323.8 -120.2,401.5 -144.1,77.7 -306.6,15.8 -401.6,-120.3 -93.7,-134.1 -16.7,-309.3 143.5,-395.7 144.1,-77.7 276.5,-13.7 378.3,114.5" /><path
         id="path438"
         style="fill:#f78248;fill-opacity:1;fill-rule:nonzero;stroke:none"
         d="m 20439.922,9265.4 c 38.7,71.9 0.2,145.2 -60,200.3 -61.8,56.7 -145.4,41.9 -200.3,-59.9 -38.8,-71.9 -24,-155.1 60,-200.3 71.8,-38.8 161.5,-11.9 200.3,59.9" /><g
         transform="matrix(-1.32498,0,0,1.32498,34037.922,0)"
         id="g440"><path
           id="path442"
           style="fill:#ffc6b0;fill-opacity:1;fill-rule:nonzero;stroke:none"
           d="m 13054.8,3243.29 c 0,0 737.5,-59.47 1072.3,298.87 334.6,358.35 921,665.37 1369.2,701.3 448.1,35.92 498,35.92 766.4,252.83 0,0 37.3,-315.48 -217.3,-484.54 -254.7,-169.06 -1161.3,-758.57 -1161.3,-758.57 l -988.6,-166.12 -840.7,156.23" /></g><g
         transform="matrix(-1.23164,0,0,1.23164,34037.922,0)"
         id="g444"><path
           id="path446"
           style="fill:#ffc6b0;fill-opacity:1;fill-rule:nonzero;stroke:none"
           d="m 16255.6,4141.8 c 44.4,-77.38 -22.7,-199.24 -149.8,-272.16 -127.2,-72.91 -266.2,-69.33 -310.7,8.04 -44.4,77.38 22.8,199.25 149.9,272.24 127.2,72.91 266.3,69.26 310.6,-8.12" /></g><g
         transform="matrix(-1.18652,0,0,1.18652,34037.922,0)"
         id="g448"><path
           id="path450"
           style="fill:#ea7147;fill-opacity:1;fill-rule:nonzero;stroke:none"
           d="m 16183.9,4745.89 c -5.1,30.6 15.6,59.59 46.2,64.73 30.6,5.22 59.6,-15.51 64.8,-46.11 5.1,-30.59 -15.5,-59.58 -46.1,-64.72 -30.6,-5.14 -59.6,15.51 -64.9,46.1" /></g><g
         transform="matrix(-1.29715,0,0,1.29715,34037.922,0)"
         id="g452"><path
           id="path454"
           style="fill:#ea7147;fill-opacity:1;fill-rule:nonzero;stroke:none"
           d="m 16193.8,4574.71 c -4.7,28.06 14.2,54.58 42.3,59.28 28,4.71 54.5,-14.18 59.2,-42.24 4.7,-27.99 -14.2,-54.51 -42.2,-59.21 -28,-4.7 -54.6,14.19 -59.3,42.17" /></g><g
         transform="matrix(-1.00188,0,0,1.00188,34037.922,0)"
         id="g456"><path
           id="path458"
           style="fill:#ea7147;fill-opacity:1;fill-rule:nonzero;stroke:none"
           d="m 16162.6,5115.7 c -6,36.33 18.4,70.66 54.7,76.75 36.2,6.09 70.5,-18.36 76.6,-54.6 6.1,-36.33 -18.4,-70.66 -54.6,-76.75 -36.2,-6.09 -70.6,18.36 -76.7,54.6" /></g><g
         transform="matrix(-1.08055,0,0,1.08055,34037.922,0)"
         id="g460"><path
           id="path462"
           style="fill:#ea7147;fill-opacity:1;fill-rule:nonzero;stroke:none"
           d="m 16172.6,4275.78 c -5.7,33.59 17,65.43 50.6,71.07 33.7,5.65 65.5,-17.02 71.2,-50.62 5.6,-33.59 -17.1,-65.43 -50.8,-71.08 -33.6,-5.64 -65.4,17.04 -71,50.63" /></g><g
         transform="matrix(-1.34052,0,0,1.34052,34037.922,0)"
         id="g464"><path
           id="path466"
           style="fill:#ea7147;fill-opacity:1;fill-rule:nonzero;stroke:none"
           d="m 16197.4,5393.87 c -4.6,27.08 13.7,52.74 40.8,57.29 27,4.55 52.7,-13.72 57.3,-40.8 4.5,-27.08 -13.8,-52.74 -40.9,-57.3 -27,-4.54 -52.7,13.73 -57.2,40.81" /></g><path
         id="path468"
         style="fill:#ea7147;fill-opacity:1;fill-rule:nonzero;stroke:none"
         d="m 18886.822,6127.9 c 6.1,36.4 -18.4,70.8 -54.8,76.9 -36.3,6.1 -70.7,-18.4 -76.8,-54.8 -6.1,-36.3 18.4,-70.7 54.7,-76.8 36.4,-6.1 70.8,18.4 76.9,54.7" /><g
         transform="matrix(-1.34023,0,0,1.34023,34037.922,0)"
         id="g470"><path
           id="path472"
           style="fill:#ea7147;fill-opacity:1;fill-rule:nonzero;stroke:none"
           d="m 16197.3,6449.77 c -4.5,27.09 13.8,52.76 40.8,57.31 27.1,4.55 52.8,-13.73 57.3,-40.82 4.6,-27.08 -13.7,-52.75 -40.8,-57.3 -27,-4.55 -52.7,13.73 -57.3,40.81" /></g><path
         id="path474"
         style="fill:#ea7147;fill-opacity:1;fill-rule:nonzero;stroke:none"
         d="m 19463.922,7445.3 c 6.1,36.4 -18.4,70.8 -54.7,76.9 -36.4,6.1 -70.8,-18.4 -76.9,-54.8 -6.1,-36.3 18.4,-70.7 54.8,-76.8 36.3,-6.1 70.7,18.4 76.8,54.7" /><g
         transform="matrix(-1.31199,0,0,1.31199,34037.922,0)"
         id="g476"><path
           id="path478"
           style="fill:#ea7147;fill-opacity:1;fill-rule:nonzero;stroke:none"
           d="m 16195,7632.69 c -4.6,27.69 14.1,53.91 41.7,58.56 27.7,4.66 53.9,-14.01 58.6,-41.71 4.7,-27.67 -14.1,-53.89 -41.7,-58.54 -27.7,-4.65 -53.9,14.02 -58.6,41.69" /></g><path
         id="path480"
         style="fill:#ea7147;fill-opacity:1;fill-rule:nonzero;stroke:none"
         d="m 19498.022,8886.8 c 6.1,36.3 -18.4,70.7 -54.7,76.8 -36.3,6.1 -70.7,-18.4 -76.8,-54.7 -6.1,-36.3 18.4,-70.7 54.7,-76.8 36.3,-6.2 70.7,18.3 76.8,54.7" /><g
         transform="matrix(-1.25837,0,0,1.25837,34037.922,0)"
         id="g482"><path
           id="path484"
           style="fill:#ea7147;fill-opacity:1;fill-rule:nonzero;stroke:none"
           d="m 16190.6,8828 c -4.9,28.87 14.6,56.21 43.5,61.06 28.9,4.85 56.2,-14.62 61.1,-43.49 4.8,-28.88 -14.7,-56.22 -43.5,-61.06 -28.9,-4.86 -56.3,14.61 -61.1,43.49" /></g><path
         id="path486"
         style="fill:#ea7147;fill-opacity:1;fill-rule:nonzero;stroke:none"
         d="m 19017.422,10209.3 c 6.1,36.3 -18.4,70.7 -54.8,76.8 -36.3,6.1 -70.7,-18.4 -76.8,-54.7 -6.1,-36.3 18.4,-70.7 54.7,-76.8 36.4,-6.2 70.8,18.3 76.9,54.7" /><g
         transform="matrix(-1.19261,0,0,1.19261,34037.922,0)"
         id="g488"><path
           id="path490"
           style="fill:#ea7147;fill-opacity:1;fill-rule:nonzero;stroke:none"
           d="m 16184.5,9812.56 c -5.1,30.46 15.5,59.31 46,64.43 30.4,5.12 59.3,-15.42 64.4,-45.89 5.1,-30.47 -15.4,-59.31 -45.9,-64.43 -30.4,-5.12 -59.3,15.43 -64.5,45.89" /></g><path
         id="path492"
         style="fill:#ea7147;fill-opacity:1;fill-rule:nonzero;stroke:none"
         d="m 18249.022,11112.2 c 6.1,36.3 -18.4,70.7 -54.7,76.8 -36.3,6.1 -70.7,-18.4 -76.8,-54.7 -6.1,-36.3 18.4,-70.7 54.7,-76.8 36.3,-6.1 70.7,18.4 76.8,54.7" /><g
         transform="matrix(-1.0888,0,0,1.0888,34037.922,0)"
         id="g494"><path
           id="path496"
           style="fill:#ea7147;fill-opacity:1;fill-rule:nonzero;stroke:none"
           d="m 16173.5,10916.4 c -5.6,33.3 16.9,64.9 50.3,70.5 33.4,5.6 65,-16.9 70.6,-50.2 5.6,-33.4 -16.9,-65 -50.2,-70.6 -33.5,-5.6 -65.1,16.9 -70.7,50.3" /></g><g
         transform="matrix(-1.41261,0,0,1.41261,34037.922,0)"
         id="g498"><path
           id="path500"
           style="fill:#aec3ff;fill-opacity:1;fill-rule:nonzero;stroke:none"
           d="m 15841.5,10732.9 c -108,-123.5 -218,-181 -318,-233.2 -21.2,-11.1 -41.3,-21.6 -61.2,-32.6 -142,-78.6 -348,-302.3 -350.1,-304.6 l -21.7,20.5 c 8.7,9.5 213.6,232 362.3,314.2 20.4,11.3 40.6,21.9 62.1,33.1 133.5,69.7 271.5,141.8 404.2,360.4 57.2,94.2 79,168.7 100,240.8 37.1,126.9 72.1,246.8 280.9,449.1 v 0 c -199.5,-193.3 -225.6,-321.6 -260.9,-442.4 -21.9,-74.9 -32.1,-160.8 -92.5,-260.3 -34.5,-56.8 -69.7,-104.5 -105.1,-145" /></g><g
         transform="matrix(-1.29995,0,0,1.29995,34037.922,0)"
         id="g502"><path
           id="path504"
           style="fill:#aec3ff;fill-opacity:1;fill-rule:nonzero;stroke:none"
           d="m 16176.5,10489.2 c -123.5,-126.1 -390.5,-252.7 -477.1,-161 -86.7,91.7 39.9,366.9 163.4,493 123.5,126 260.7,120 347.3,28.3 86.6,-91.6 89.9,-234.2 -33.6,-360.3" /></g><g
         transform="matrix(-1.31661,0,0,1.31661,34037.922,0)"
         id="g506"><path
           id="path508"
           style="fill:#aec3ff;fill-opacity:1;fill-rule:nonzero;stroke:none"
           d="m 16218.8,11004.5 81.2,-71 -346.1,-353.3 -74.1,78.3 339,346" /></g><g
         transform="matrix(-1.29174,0,0,1.29174,34037.922,0)"
         id="g510"><path
           id="path512"
           style="fill:#aec3ff;fill-opacity:1;fill-rule:nonzero;stroke:none"
           d="m 16221.2,10614.3 c -78.9,-80.5 -249.4,-161.3 -304.6,-102.8 -55.3,58.5 25.5,234.2 104.3,314.7 78.8,80.4 166.4,76.6 221.7,18.1 55.2,-58.5 57.4,-149.5 -21.4,-230" /></g><g
         transform="matrix(-1.54366,0,0,1.54366,34037.922,0)"
         id="g514"><path
           id="path516"
           style="fill:#aec3ff;fill-opacity:1;fill-rule:nonzero;stroke:none"
           d="m 15808.1,9803.63 c -100.8,-66.29 -190.1,-85.36 -271.2,-102.69 -17.3,-3.69 -33.5,-7.16 -49.8,-11.04 -116.1,-27.68 -306.2,-145.68 -308.1,-146.87 l -11.3,18.81 c 8,4.98 197.1,122.32 318.6,151.3 16.6,3.97 33.1,7.49 50.5,11.21 108.3,23.14 220.3,47.06 357.4,175.8 59.1,55.46 89.2,104.05 118.3,150.95 51.3,82.6 99.7,160.7 287.5,262.9 v 0 c -179.4,-97.6 -223.2,-183.4 -272,-262.1 -30.3,-48.8 -54.4,-107.63 -116.8,-166.2 -35.7,-33.51 -70,-60.33 -103.1,-82.07" /></g><g
         transform="matrix(-1.42487,0,0,1.42487,34037.922,0)"
         id="g518"><path
           id="path520"
           style="fill:#aec3ff;fill-opacity:1;fill-rule:nonzero;stroke:none"
           d="m 16162.4,9995.37 c -112,-64.81 -325.6,-101.83 -368.8,-20.06 -43.2,81.79 100.3,251.39 212.3,316.19 112,64.8 207.7,33.6 250.9,-48.2 43.2,-81.7 17.6,-183.1 -94.4,-247.93" /></g><g
         transform="matrix(-1.44339,0,0,1.44339,34037.922,0)"
         id="g522"><path
           id="path524"
           style="fill:#aec3ff;fill-opacity:1;fill-rule:nonzero;stroke:none"
           d="m 16256.6,10276.3 43.4,-66 -313.8,-181.6 -37,69.8 307.4,177.8" /></g><g
         transform="matrix(-1.4179,0,0,1.4179,34037.922,0)"
         id="g526"><path
           id="path528"
           style="fill:#aec3ff;fill-opacity:1;fill-rule:nonzero;stroke:none"
           d="m 16212.3,10097.2 c -71.4,-41.3 -207.5,-64.9 -235,-12.8 -27.6,52.1 63.9,160.2 135.2,201.5 71.5,41.3 132.4,21.4 160,-30.7 27.5,-52.1 11.2,-116.7 -60.2,-158" /></g><g
         transform="matrix(-1.08674,0,0,1.08674,34037.922,0)"
         id="g530"><path
           id="path532"
           style="fill:#aec3ff;fill-opacity:1;fill-rule:nonzero;stroke:none"
           d="m 8578.17,15449.2 c 168.07,-110.5 316.89,-142.3 452.13,-171.2 28.72,-6.1 55.86,-11.9 83,-18.4 193.43,-46.1 510.34,-242.8 513.57,-244.8 l 18.86,31.3 c -13.34,8.3 -328.51,203.9 -531.08,252.2 -27.77,6.7 -55.2,12.5 -84.25,18.7 -180.54,38.6 -367.25,78.5 -595.72,293.1 -98.44,92.4 -148.65,173.3 -197.2,251.6 -85.46,137.8 -166.17,267.9 -479.27,438.3 v 0 c 299.12,-162.8 372.11,-305.8 453.47,-437 50.42,-81.3 90.73,-179.4 194.67,-277 59.48,-55.9 116.68,-100.6 171.82,-136.8" /></g><g
         transform="matrix(-1.00287,0,0,1.00287,34037.922,0)"
         id="g534"><path
           id="path536"
           style="fill:#aec3ff;fill-opacity:1;fill-rule:nonzero;stroke:none"
           d="m 10902.4,15698.2 c 186.7,-108.1 542.8,-169.8 614.8,-33.4 72,136.3 -167.2,419.1 -354,527.1 -186.8,108.1 -346.2,56.1 -418.3,-80.2 -72,-136.4 -29.3,-305.4 157.5,-413.5" /></g><g
         transform="matrix(-1.00837,0,0,1.00837,34037.922,0)"
         id="g538"><path
           id="path540"
           style="fill:#aec3ff;fill-opacity:1;fill-rule:nonzero;stroke:none"
           d="m 10336.3,16300 -73,-111 527.2,-305 62,117.2 -516.2,298.8" /></g><path
         id="path542"
         style="fill:#aec3ff;fill-opacity:1;fill-rule:nonzero;stroke:none"
         d="m 23055.122,15830.8 c -118.8,-68.8 -345.3,-108 -391.1,-21.3 -45.8,86.7 106.3,266.6 225.1,335.3 118.8,68.7 220.3,35.7 266.1,-51 45.8,-86.8 18.6,-194.3 -100.1,-263" /><g
         transform="matrix(-1.1073,0,0,1.1073,34037.922,0)"
         id="g544"><path
           id="path546"
           style="fill:#aec3ff;fill-opacity:1;fill-rule:nonzero;stroke:none"
           d="m 10718.7,15177.5 c 220.7,-146 416.4,-188.4 594.2,-226.9 37.7,-8.2 73.4,-15.9 109.1,-24.5 254.4,-61.5 670.5,-321.4 674.7,-324.1 l 24.9,41.2 c -17.4,11 -431.4,269.5 -697.7,333.9 -36.5,8.8 -72.5,16.6 -110.7,24.9 -237.5,51.4 -482.9,104.5 -782.7,387.8 -129.2,122 -194.9,228.6 -258.5,331.8 -111.9,181.5 -217.6,353 -628.83,578.4 v 0 c 392.93,-215.4 488.43,-403.8 594.93,-576.6 66,-107.2 118.7,-236.4 255.1,-365.2 78,-73.7 153,-132.8 225.5,-180.7" /></g><path
         id="path548"
         style="fill:#aec3ff;fill-opacity:1;fill-rule:nonzero;stroke:none"
         d="m 20013.022,15397.7 c -250.6,-146 -729,-230.4 -826.4,-47.4 -97.3,183 223.2,564 473.8,710.1 250.7,146 465.3,76.7 562.7,-106.3 97.4,-183 40.6,-410.4 -210.1,-556.4" /><g
         transform="matrix(-1.00177,0,0,1.00177,34037.922,0)"
         id="g550"><path
           id="path552"
           style="fill:#aec3ff;fill-opacity:1;fill-rule:nonzero;stroke:none"
           d="m 13319.1,16300 -98.8,-149.4 710.2,-413.8 84.1,158.1 -695.5,405.1" /></g><path
         id="path554"
         style="fill:#aec3ff;fill-opacity:1;fill-rule:nonzero;stroke:none"
         d="m 19946.722,15514.9 c -159,-92.6 -462.4,-146.1 -524.1,-30.1 -61.8,116.1 141.5,357.8 300.5,450.4 159,92.6 295.1,48.6 356.9,-67.4 61.7,-116.1 25.7,-260.3 -133.3,-352.9" /><g
         transform="matrix(-1.05155,0,0,1.05155,34037.922,0)"
         id="g556"><path
           id="path558"
           style="fill:#aec3ff;fill-opacity:1;fill-rule:nonzero;stroke:none"
           d="m 8040.33,14116.4 c -146.88,32.7 -281.44,86 -400.64,159.8 -253.42,156.9 -424.52,400.9 -469.44,669.5 -39.75,237.8 -113.18,623 -337.86,887.5 -245.09,288.5 -629.69,464.2 -1117.28,422.1 v 0 c 518.12,44.7 915.16,-90.8 1180.12,-402.7 239.03,-281.3 321.85,-643.9 363.36,-892.1 40.66,-243.2 196.76,-464.8 428.24,-608.1 352.51,-218.3 853.57,-244.7 1410.83,-74.4 333.86,102 881.96,171.5 1597.14,-76.5 409.3,-141.9 699.3,-297.7 731.2,-318.9 l 671.8,-359.7 -39.3,-80.5 -665.9,293.6 -53.9,2.2 c -2.9,1.9 -307.2,186.1 -723.2,330 -381.5,132.1 -907.86,261.8 -1488.76,84.3 -397.08,-121.3 -771.45,-106.2 -1086.41,-36.1" /></g><path
         id="path560"
         style="fill:#95b3ef;fill-opacity:1;fill-rule:nonzero;stroke:none"
         d="m 20813.922,13169.9 c -426.8,-226 -1228.4,-334.1 -1378,-23.1 -149.6,311 409.3,923.3 836.2,1149.3 426.8,226 779.3,96.3 928.9,-214.7 149.6,-311 39.8,-685.5 -387.1,-911.5" /><path
         id="path562"
         style="fill:#95b3ef;fill-opacity:1;fill-rule:nonzero;stroke:none"
         d="m 22011.622,14672.9 154.7,-255.7 -1211.6,-641.5 -129.4,269.1 1186.3,628.1" /><path
         id="path564"
         style="fill:#afcdfb;fill-opacity:1;fill-rule:nonzero;stroke:none"
         d="m 20763.422,13650.5 c -143,-75.7 -411.4,-111.9 -461.6,-7.7 -50.1,104.2 137.1,309.3 280.1,385 143,75.7 261.1,32.2 311.2,-71.9 50.1,-104.2 13.3,-229.7 -129.7,-305.4" /><g
         transform="matrix(-1.63062,0,0,1.63062,34037.922,0)"
         id="g566"><path
           id="path568"
           style="fill:#aec3ff;fill-opacity:1;fill-rule:nonzero;stroke:none"
           d="m 15536.8,7787.99 c 46.4,8.24 89.4,23.28 127.9,45.12 81.8,46.42 139.5,122.04 158.2,207.48 16.5,75.63 46.2,198.02 120.9,279.39 81.6,88.75 204.7,139.19 356.2,118.27 v 0 c -161,22.23 -287.3,-15.14 -375.4,-111.08 -79.6,-86.57 -111.8,-201.54 -129,-280.5 -16.9,-77.34 -69.6,-146.02 -144.3,-188.43 -113.8,-64.57 -270.8,-65.38 -441.7,-2.28 -102.5,37.81 -272.4,68.48 -500,-0.13 -130.2,-39.25 -223.5,-84.74 -233.8,-91.07 l -216,-105.07 10.8,-26.4 213.1,83.95 16.9,-0.1 c 0.9,0.56 99.1,54.98 231.5,94.76 121.3,36.5 288,70.06 466.2,4.27 121.8,-44.97 239,-45.85 338.5,-28.18" /></g><g
         transform="matrix(-1.42679,0,0,1.42679,34037.922,0)"
         id="g570"><path
           id="path572"
           style="fill:#8fb2ff;fill-opacity:1;fill-rule:nonzero;stroke:none"
           d="m 16106.6,8396.35 c -149.1,-71.66 -423.2,-96 -468,14.86 -44.9,110.86 156.4,314.94 305.4,386.6 149.2,71.67 266.3,20.6 311.1,-90.26 44.9,-110.86 0.5,-239.54 -148.5,-311.2" /></g><g
         transform="matrix(-1.45209,0,0,1.45209,34037.922,0)"
         id="g574"><path
           id="path576"
           style="fill:#8fb2ff;fill-opacity:1;fill-rule:nonzero;stroke:none"
           d="m 16253.2,8745.14 46.8,-90.08 -415.9,-199.86 -38.1,94.23 407.2,195.71" /></g><g
         transform="matrix(-1.41483,0,0,1.41483,34037.922,0)"
         id="g578"><path
           id="path580"
           style="fill:#afcdfb;fill-opacity:1;fill-rule:nonzero;stroke:none"
           d="m 16234.6,8637.1 c -50.3,-24.2 -142.9,-32.42 -158,5.02 -15.2,37.45 52.8,106.39 103.2,130.59 50.3,24.21 89.9,6.96 105.1,-30.48 15.1,-37.45 0.1,-80.92 -50.3,-105.13" /></g><g
         transform="matrix(-1.60739,0,0,1.60739,34037.922,0)"
         id="g582"><path
           id="path584"
           style="fill:#aec3ff;fill-opacity:1;fill-rule:nonzero;stroke:none"
           d="m 15822.3,2320.53 c -106.7,103.08 -210.2,146.57 -304.3,186.01 -20,8.4 -38.8,16.37 -57.6,24.76 -134,59.98 -336.7,245.99 -338.8,247.86 l -17.9,-20.16 c 8.5,-7.84 210.2,-192.79 350.4,-255.63 19.2,-8.58 38.3,-16.61 58.5,-25.07 125.6,-52.69 255.4,-107.19 391.6,-294.08 58.7,-80.5 84,-146.07 108.4,-209.47 43.2,-111.54 83.8,-216.93 287.4,-383.41 v 0 c -194.5,159.07 -227.8,272.67 -268.8,378.93 -25.4,65.82 -41.2,142.47 -103.2,227.51 -35.4,48.65 -70.7,88.91 -105.7,122.75" /></g><g
         transform="matrix(-1.47898,0,0,1.47898,34037.922,0)"
         id="g586"><path
           id="path588"
           style="fill:#aec3ff;fill-opacity:1;fill-rule:nonzero;stroke:none"
           d="m 16171.3,3501.19 c -120.9,104.27 -371.2,198.11 -442.4,108.93 -71.1,-89.25 63.9,-327.73 184.9,-431.99 120.9,-104.19 244,-88.37 315.1,0.88 71.1,89.19 63.3,217.99 -57.6,322.18" /></g><g
         transform="matrix(-1.49852,0,0,1.49852,34037.922,0)"
         id="g590"><path
           id="path592"
           style="fill:#aec3ff;fill-opacity:1;fill-rule:nonzero;stroke:none"
           d="m 16232.2,2890.53 67.8,70.07 -338.7,292.09 -60.8,-76.21 331.7,-285.95" /></g><g
         transform="matrix(-1.47039,0,0,1.47039,34037.922,0)"
         id="g594"><path
           id="path596"
           style="fill:#aec3ff;fill-opacity:1;fill-rule:nonzero;stroke:none"
           d="m 16217.8,3464.6 c -77.1,66.51 -236.8,126.36 -282.1,69.5 -45.5,-56.92 40.7,-209.05 117.8,-275.57 77.2,-66.51 155.8,-56.38 201.1,0.55 45.4,56.92 40.4,139.01 -36.8,205.52" /></g><g
         transform="matrix(-1.73186,0,0,1.73186,34037.922,0)"
         id="g598"><path
           id="path600"
           style="fill:#aec3ff;fill-opacity:1;fill-rule:nonzero;stroke:none"
           d="m 15844.8,2591.43 c -86.5,31.29 -156.1,29.62 -219.3,28.12 -13.4,-0.35 -26.1,-0.64 -38.9,-0.64 -91,-0.06 -252.8,53.76 -254.5,54.28 l -5,-15.94 c 6.8,-2.25 167.8,-55.78 263,-55.72 13.1,0 25.9,0.29 39.5,0.64 84.4,2.02 171.7,4.1 296.1,-67.1 53.7,-30.66 84.6,-61.32 114.5,-90.94 52.7,-52.2 102.4,-101.51 259.8,-144.07 v 0 c -150.4,40.65 -198.1,96.49 -248.2,146.21 -31,30.83 -59.4,70.15 -116,102.54 -32.4,18.54 -62.6,32.34 -91,42.62" /></g><g
         transform="matrix(-1.61544,0,0,1.61544,34037.922,0)"
         id="g602"><path
           id="path604"
           style="fill:#aec3ff;fill-opacity:1;fill-rule:nonzero;stroke:none"
           d="m 16169.9,3068.26 c -93.6,27.92 -256.7,17.71 -274.1,-49.89 -17.4,-67.6 117.7,-166.89 211.2,-194.81 93.6,-27.92 158.3,11.76 175.7,79.3 17.3,67.6 -19.2,137.48 -112.8,165.4" /></g><g
         transform="matrix(-1.63401,0,0,1.63401,34037.922,0)"
         id="g606"><path
           id="path608"
           style="fill:#aec3ff;fill-opacity:1;fill-rule:nonzero;stroke:none"
           d="m 16279.7,2785.67 20.3,56.12 -262.5,78.4 -14.9,-57.78 257.1,-76.74" /></g><g
         transform="matrix(-1.6095,0,0,1.6095,34037.922,0)"
         id="g610"><path
           id="path612"
           style="fill:#aec3ff;fill-opacity:1;fill-rule:nonzero;stroke:none"
           d="m 16217.2,3035.85 c -59.6,17.78 -163.5,11.25 -174.5,-31.74 -11.1,-43.06 74.9,-106.25 134.4,-124.02 59.6,-17.77 100.8,7.46 111.8,50.45 11.1,43.06 -12.2,87.55 -71.7,105.31" /></g><g
         transform="matrix(-1.73674,0,0,1.73674,34037.922,0)"
         id="g614"><path
           id="path616"
           style="fill:#aec3ff;fill-opacity:1;fill-rule:nonzero;stroke:none"
           d="m 15435,3895.8 c -149.4,-7.08 -252.7,-53.03 -346.6,-94.83 -20,-8.87 -38.8,-17.22 -58,-25.22 -136.5,-56.89 -413,-77.22 -415.8,-77.39 l 2.4,-27.12 c 11.7,0.87 286.7,21.08 429.6,80.61 19.5,8.18 38.6,16.64 58.8,25.62 125.4,55.74 255,113.44 486.2,84.3 99.6,-12.49 165.2,-39.21 228.6,-65.01 111.6,-45.43 217.1,-88.38 479.8,-53.95 v 0 c -251,-32.88 -357.4,21.19 -463.7,64.43 -65.9,26.84 -133,68.18 -238.2,81.42 -60.2,7.54 -114.1,9.44 -163.1,7.14" /></g><g
         transform="matrix(-1.53344,0,0,1.53344,34037.922,0)"
         id="g618"><path
           id="path620"
           style="fill:#aec3ff;fill-opacity:1;fill-rule:nonzero;stroke:none"
           d="m 15995.1,4333.33 c -166.8,-17.48 -418.7,-141.39 -401.6,-260.01 17,-118.56 296.6,-186.9 463.3,-169.42 166.7,17.41 243.2,122.99 226.2,241.61 -17.1,118.56 -121.2,205.23 -287.9,187.82" /></g><g
         transform="matrix(-1.56458,0,0,1.56458,34037.922,0)"
         id="g622"><path
           id="path624"
           style="fill:#aec3ff;fill-opacity:1;fill-rule:nonzero;stroke:none"
           d="m 16300,4049.58 -4.8,101.56 -463.8,-48.51 14.4,-100.54 454.2,47.49" /></g><g
         transform="matrix(-1.62783,0,0,1.62783,34037.922,0)"
         id="g626"><path
           id="path628"
           style="fill:#f99746;fill-opacity:1;fill-rule:nonzero;stroke:none"
           d="m 17271.898,6232.66 c -75.7,254.04 -343.9,399.17 -598,323.51 -254,-75.66 -399.1,-343.9 -323.4,-597.95 75.6,-254.02 343.8,-399.18 597.9,-323.49 254,75.62 399.1,343.89 323.5,597.93 z m -1138.5,-339.06 c -111.3,373.7 102.2,768.29 475.9,879.59 373.8,111.31 768.3,-102.19 879.7,-475.89 100.2,-336.81 -63.3,-690.4 -370,-838.51 l 25.3,-85.33 220.7,65.67 c 59.8,17.81 123,-16.34 140.8,-76.18 17.8,-59.83 -16.4,-123.04 -76.2,-140.86 l -220.6,-65.67 55.1,-185.09 c 17.8,-59.83 -16.4,-122.99 -76.2,-140.8 -59.9,-17.82 -123,16.34 -140.8,76.17 l -55.1,185.03 -215.2,-64.07 c -59.8,-17.81 -123,16.4 -140.8,76.24 -17.8,59.83 16.3,122.98 76.2,140.8 l 215.1,64.07 -25.4,85.39 c -337.9,-43.92 -668.2,162.67 -768.5,499.44" /></g><g
         transform="matrix(1.74986,0,0,1.74986,-18576.959,0)"
         id="g634"><path
           id="path636"
           style="fill:#8fb2ff;fill-opacity:1;fill-rule:nonzero;stroke:none"
           d="m 16276.6,6731.53 c -16.5,22.83 -42,38.11 -70.2,42.34 l -368,52.9 c -27.8,4.02 -55.6,-3.03 -78.1,-19.93 -22.5,-16.84 -37.1,-41.49 -41.1,-69.32 -8.3,-57.48 31.7,-110.95 89.2,-119.26 l 71.8,-10.29 -230.4,-150.19 c -92.3,101.8 -213.7,171.96 -350.8,200.98 -172,36.28 -347.7,3.45 -494.9,-92.49 -98.8,-64.32 -176.7,-151.88 -228.4,-254.52 13.8,-3.1 27.6,-6.76 41.4,-10.85 55.6,-16.55 107.4,-39.87 154.8,-68.83 34.8,63.2 85,117.23 147.1,157.73 100.2,65.23 219.6,87.49 336.5,62.84 12.2,-2.54 24.3,-5.63 36.1,-9.16 102.4,-30.5 187.6,-94.25 246.2,-184.28 65.3,-100.11 87.6,-219.58 62.9,-336.45 -24.7,-116.87 -93.4,-217.2 -193.5,-282.35 -97.3,-63.49 -213,-86.29 -326.8,-64.81 -3.2,0.57 -6.4,1.2 -9.6,1.89 -72.6,15.43 -138.8,47.78 -194.2,94.12 -33.8,28.17 -63.5,61.51 -88.2,99.41 -47.8,73.41 -72.5,157.23 -72.6,242.76 -45.3,37.89 -98.7,67.34 -158.9,85.24 -14.8,4.43 -29.8,8.02 -44.8,10.91 -23.3,-158.64 11.5,-318.41 99.8,-453.92 54,-82.81 125.5,-151.84 208.4,-202.53 47.9,-29.26 99.6,-52.35 154.1,-68.64 13.8,-4.11 27.9,-7.82 42.1,-11.08 3.6,-0.8 7.2,-1.6 10.8,-2.35 171.9,-36.28 347.7,-3.48 495,92.47 147.2,95.95 248.2,243.45 284.6,415.35 28.8,137.08 13.7,276.56 -42.1,402.1 l 285.2,185.76 -14.8,-86.36 c -9.1,-52.48 22.7,-103.49 73.6,-118.64 4.2,-1.26 8.3,-2.25 12.4,-2.95 27.8,-4.72 55.7,1.62 78.7,17.89 23,16.27 38.2,40.51 43,68.19 l 52.4,306.65 c 4.7,27.83 -2.1,56.92 -18.7,79.67" /></g><path
         id="path638"
         style="fill:#163560;fill-opacity:1;fill-rule:nonzero;stroke:none"
         d="m 24243.112,9781.7 c 38.2,73.7 -833.39,339 -847.29,-388.1 0,0 -1632.8,40.1 -853.1,950.2 269.9,315.1 242.1,575.6 234,818.1 -8.2,242.5 168.1,947.3 772.5,876.4 0,0 158.3,64.4 355.8,-38.1 449.19,-233 1455.44,-2486.6 338.09,-2218.5" /><path
         id="path640"
         style="fill:#ffb27d;fill-opacity:1;fill-rule:nonzero;stroke:none"
         d="m 21573.722,9077 c 0,0 -106.3,161.8 -192,165 -85.6,3.1 -244.3,47.6 -231.6,15.8 12.7,-31.7 111.1,-34.9 120.6,-53.9 9.5,-19 -146,-47.6 -190.4,-50.8 -44.4,-3.1 -149.1,0 -145.9,-22.2 3.2,-22.2 188.7,-114.2 319.6,-101.5 130.9,12.7 292.7,-38.1 292.7,-38.1 l 27,85.7" /><path
         id="path642"
         style="fill:#f9ddbf;fill-opacity:1;fill-rule:nonzero;stroke:none"
         d="m 23110.822,9024.6 c 0,0 -57.8,-114.4 -162.6,-245.8 -126.3,-158.2 -321,-340.9 -565.5,-377 -116.8,-17.2 -231,7.9 -336,54.5 -0.3,0.1 -0.4,0.1 -0.4,0.1 -297,131.9 -520.2,435 -520.2,435 -52.4,142.8 33.3,239.6 33.3,239.6 0,0 599.6,-134.9 656.7,-106.4 57.1,28.6 390.2,988.3 469.5,1108.8 79.4,120.6 349.7,183.3 349.7,183.3 l 75.5,-1292.1" /><path
         id="path644"
         style="fill:#f2ccaa;fill-opacity:1;fill-rule:nonzero;stroke:none"
         d="m 22948.222,8778.8 c -126.3,-158.2 -321,-340.9 -565.5,-377 -116.8,-17.2 -231,7.9 -336,54.5 11.6,-1.5 308.2,-38.1 426.4,173.4 120.6,215.7 250.9,558.4 430.1,444.1 77.3,-49.3 73.8,-171.7 45,-295" /><path
         id="path646"
         style="fill:#2c4a7c;fill-opacity:1;fill-rule:nonzero;stroke:none"
         d="m 25347.812,2552.1 c 0,0 182.97,-166.9 147.27,-285.6 -35.7,-118.6 -200.82,-197.7 -223.13,-342.7 -22.31,-145 -111.56,-224.1 -191.89,-224.1 -80.32,0 -382.95,0 -382.95,0 0,0 -59.13,102 83.67,132.8 142.8,30.8 196.64,201.2 187.72,359.3 -8.92,158.2 13.38,369.1 13.38,369.1 l 303.46,70.3 62.47,-79.1" /><path
         id="path648"
         style="fill:#2c4a7c;fill-opacity:1;fill-rule:nonzero;stroke:none"
         d="m 23799.222,2481.3 c 0,0 65.8,-707.4 -14.5,-746.9 l -1028,2.1 c 0,0 0,118.6 165.1,145 165.1,26.3 455.2,123 504.3,338.3 49.1,215.3 373.1,261.5 373.1,261.5" /><path
         id="path650"
         style="fill:#ebf3fa;fill-opacity:1;fill-rule:nonzero;stroke:none"
         d="m 23367.522,10987.9 c 0,0 -41.6,-54.8 -124.9,-50.8 -67.1,3.1 -93,61.3 -93,61.3 0,0 123.3,29.7 217.9,-10.5" /><path
         id="path652"
         style="fill:#f9ddbf;fill-opacity:1;fill-rule:nonzero;stroke:none"
         d="m 24449.612,9501.8 c 0,0 -2.28,-286.1 -17.6,-545.3 -10.18,-171.8 -25.98,-331.8 -50.63,-388.7 -61.87,-142.8 -131.63,-166 -131.63,-166 l -539.73,-132.3 -189.8,-46.4 -598.5,178.7 c 0,0 -272.6,760.8 -163.1,1189.1 109.5,428.3 276.7,725.8 276.7,725.8 0,0 362.1,120.7 1124.2,40.5 l 290.09,-855.4" /><path
         id="path654"
         style="fill:#f2ccaa;fill-opacity:1;fill-rule:nonzero;stroke:none"
         d="m 24432.012,9130.3 c -10.18,-171.8 -25.98,-505.6 -50.63,-562.5 -61.87,-142.8 -131.63,-166 -131.63,-166 l -539.73,-132.3 -234.4,68.9 c 0,0 806.14,344.8 719.43,1018.1 l 236.96,-226.2" /><path
         id="path656"
         style="fill:#ed7d2b;fill-opacity:1;fill-rule:nonzero;stroke:none"
         d="m 22959.822,8286.3 c 0,0 -296.4,-922.5 -315.4,-1236.6 -19,-314.1 566.5,-4461.8 590.1,-4606.5 22.2,-136.4 191.6,-223.4 191.6,-223.4 0,0 77.9,-45.9 189.1,-14.5 154.3,43.5 203,95.7 203,95.7 0,0 230.71,2958.1 88,4014.8 -142.8,1056.7 -144.5,1970.5 -144.5,1970.5 h -801.9" /><path
         id="path658"
         style="fill:#f99746;fill-opacity:1;fill-rule:nonzero;stroke:none"
         d="m 24215.502,8313.8 c 0,0 452.09,-606.6 494.23,-1016.6 42.15,-410.1 66.12,-1850.4 155.91,-2250.1 89.79,-399.8 419.7,-1169 419.7,-2415.9 0,0 -34.29,-71.4 -140.17,-109.5 -33.86,-12.2 -79.23,-24 -123.28,-34.1 -87.31,-20 -176.9,22.7 -216.75,102.9 -223.04,449.1 -933.52,1897.5 -969.92,2198.1 -25.8,212.8 -250.1,1620.9 -739.4,2447.2 -117.5,198.4 72.1,987.3 72.1,987.3 l 1047.58,90.7" /><path
         id="path660"
         style="fill:#233862;fill-opacity:1;fill-rule:nonzero;stroke:none"
         d="m 22912.522,8428.7 c 0,0 118.9,-94.1 355.3,-98.8 282.3,-5.7 981.9,71.9 981.9,71.9 0,0 31.08,-86.8 29.81,-178.5 0,0 -854.41,-215.5 -1349.51,-31.5 0,0 -63.8,120.1 -17.5,236.9" /><path
         id="path662"
         style="fill:#ffffff;fill-opacity:1;fill-rule:nonzero;stroke:none"
         d="m 23286.222,8232.4 c 0,-56.9 -38.7,-103.1 -86.1,-103.1 -47.5,0 -86.2,46.2 -86.2,103.1 0,56.8 38.7,103.1 86.2,103.1 47.4,0 86.1,-46.3 86.1,-103.1 z m 42.7,0 c 0,80.4 -57.8,145.8 -128.8,145.8 -71.1,0 -128.9,-65.4 -128.9,-145.8 0,-80.4 57.8,-145.8 128.9,-145.8 71,0 128.8,65.4 128.8,145.8" /><path
         id="path664"
         style="fill:#ffb27d;fill-opacity:1;fill-rule:nonzero;stroke:none"
         d="m 24058.212,7719.4 c 0,0 -51.89,-120.8 -117.39,-138.6 -65.6,-17.9 -115.2,-77.8 -139,-95.3 -23.8,-17.6 -66.4,-22.7 -54.6,-41.5 11.7,-18.8 130.2,15 146.1,21 16,6 -94.8,-111.5 -131.1,-147.9 -36.2,-36.4 -117.7,-88.5 -97.8,-112.7 19.9,-24.3 250.3,2.7 345.4,65.2 47.58,31.2 69.65,130.6 103.07,201.3 33.41,70.7 78.17,112.8 78.17,112.8 l -132.85,135.7" /><path
         id="path666"
         style="fill:#f9ddbf;fill-opacity:1;fill-rule:nonzero;stroke:none"
         d="m 24159.522,10357.2 c 0,0 294.77,-19.8 452.34,-208.9 157.57,-189.1 444.16,-1284.2 379.81,-1591.5 -64.34,-307.2 -548.11,-982.5 -820.31,-1024.2 0,0 -78.43,1.6 -125.44,60.4 -26.3,32.8 -34.6,80.2 -34.6,80.2 0,0 94.16,479.8 238.43,728.6 199.86,344.7 -4.24,800.4 -138.18,923.2 -133.95,122.8 47.95,1032.2 47.95,1032.2" /><path
         id="path668"
         style="fill:#ffb27d;fill-opacity:1;fill-rule:nonzero;stroke:none"
         d="m 23786.422,10308.9 c 106.8,48.3 78.4,31.1 49.8,208.4 -19,117.9 -32.8,189.3 -32.1,352.8 l -27.1,-4.7 -455.6,-79 c 0,0 10.4,-125.7 10.7,-244 0,-1 0,-2 0,-2.9 0.5,-102.8 -30.9,-205.5 22,-249 71.1,-58.5 293.1,-44.6 432.3,18.4" /><path
         id="path670"
         style="fill:#e8945b;fill-opacity:1;fill-rule:nonzero;stroke:none"
         d="m 23321.422,10786.4 c 0,0 10.3,-125.7 10.7,-244 254.9,6.3 389.7,210.1 444.9,323 l -455.6,-79" /><path
         id="path672"
         style="fill:#ffb27d;fill-opacity:1;fill-rule:nonzero;stroke:none"
         d="m 23236.222,10646.6 c 0,0 603.3,-9.9 603.7,365.8 0.4,375.8 78.5,627.6 -306.6,649.8 -385.1,22.2 -460.1,-121 -490.8,-246.4 -30.6,-125.4 36.8,-756.9 193.7,-769.2" /><path
         id="path674"
         style="fill:#163560;fill-opacity:1;fill-rule:nonzero;stroke:none"
         d="m 23258.622,11671.4 c 0,0 165.1,-440.8 418.6,-506 253.5,-65.2 363.43,2.7 363.43,2.7 0,0 -194.43,154.5 -234.73,424.1 0,0 -422.7,289 -547.3,79.2" /><path
         id="path676"
         style="fill:#163560;fill-opacity:1;fill-rule:nonzero;stroke:none"
         d="m 23299.522,11635.6 c 0,0 -122.5,-45.8 -172.9,-135.1 -49.3,-87.3 -91.3,-203 -81.5,-344.9 0,0 -124.5,299.6 15.4,469.1 148.3,179.7 239,10.9 239,10.9" /><path
         id="path678"
         style="fill:#ffffff;fill-opacity:1;fill-rule:nonzero;stroke:none"
         d="m 23354.122,10869.7 c 0,0 -10.4,-44.3 -120.6,-37.5 0,0 -92.5,5.7 -89.7,54.4 0,0 89.7,34.6 210.3,-16.9" /><path
         id="path680"
         style="fill:#f9ddbf;fill-opacity:1;fill-rule:nonzero;stroke:none"
         d="m 25942.512,10991.3 c 0,0 -905.93,-1259.4 -705.99,-1768.3 231.11,-588.3 705.99,-350.2 705.99,-350.2 v 2118.5" /><path
         id="path682"
         style="fill:#2c4a7c;fill-opacity:1;fill-rule:nonzero;stroke:none"
         d="m 25496.112,1733.3 h 1201.85 c 86.11,58.4 -23.22,629.3 -23.22,629.3 0,0 -328.02,124.5 -384.67,-128.6 -56.83,-252.9 -417.8,-333.3 -608.84,-364.2 -130.73,-21.3 -172.05,-93.1 -185.12,-136.5" /><path
         id="path684"
         style="fill:#2c4a7c;fill-opacity:1;fill-rule:nonzero;stroke:none"
         d="m 27278.562,1733.3 h 1201.86 c 86.11,58.4 -23.23,629.3 -23.23,629.3 0,0 -328.02,124.5 -384.67,-128.6 -56.82,-252.9 -417.8,-333.3 -608.84,-364.2 -130.73,-21.3 -172.04,-93.1 -185.12,-136.5" /><path
         id="path686"
         style="fill:#afcdfb;fill-opacity:1;fill-rule:nonzero;stroke:none"
         d="m 25819.472,7557.7 c 0,0 54.02,-674 117.51,-1484.1 86.3,-1100.6 319.06,-3829.2 319.06,-3829.2 0,0 152.59,-130.2 490.58,-59 0,0 287.69,941.4 373.72,2015.7 1.34,17.6 2.67,35.4 4.01,53.1 80.03,1093.8 204.47,3396.9 204.47,3396.9 l -1509.35,-93.4" /><path
         id="path688"
         style="fill:#95b3ef;fill-opacity:1;fill-rule:nonzero;stroke:none"
         d="m 25801.042,7790.6 c 0,0 72.45,-906.9 135.94,-1717 l 1183.36,-1872.5 c 1.34,17.6 2.67,35.4 4.01,53.1 80.03,1093.8 204.47,3396.9 204.47,3396.9 l -1527.78,139.5" /><path
         id="path690"
         style="fill:#afcdfb;fill-opacity:1;fill-rule:nonzero;stroke:none"
         d="m 26145.942,7790.6 c 0,0 858.26,-2136.4 1132.62,-2946.2 195.44,-576.8 746.62,-2600.4 746.62,-2600.4 0,0 239.67,-73 441.1,68 0,0 205.06,2067.5 -209.14,2650.4 -219.76,309.3 -54.61,3215.1 -945.62,3239.9 -891.02,24.9 -1165.58,-411.7 -1165.58,-411.7" /><path
         id="path692"
         style="fill:#ffb27d;fill-opacity:1;fill-rule:nonzero;stroke:none"
         d="m 26529.312,10939.9 c 131.02,-69 258.89,-73.3 369.74,-49.7 101.41,21.3 188.49,66.1 250.5,105.7 63.64,40.7 101.07,76.1 101.07,76.1 0,0 -4.44,6.4 -11.89,19 -38.71,66.2 -156.09,304.3 -103.87,686.7 0.71,5 -37.18,-2.1 -94.42,-15.6 -170.3,-40.3 -512.65,-137.4 -527.8,-141.8 -0.35,0 -0.58,0 -0.58,0 0,0 -4.2,-80.4 -18.31,-224.6 -1.16,-12.7 -2.45,-26 -3.84,-39.7 -1.75,-16.9 -3.5,-34.9 -5.6,-53.3 -15.85,-149.9 45,-362.8 45,-362.8" /><path
         id="path694"
         style="fill:#ed975d;fill-opacity:1;fill-rule:nonzero;stroke:none"
         d="m 26493.752,11395.7 c 254.23,-58.3 633.65,317.1 633.65,317.1 -27.74,20.6 -56.88,36.9 -86.96,49.3 -170.3,-40.3 -512.65,-137.4 -527.8,-141.8 -0.35,0 -0.58,0 -0.58,0 0,0 -4.2,-80.4 -18.31,-224.6" /><path
         id="path696"
         style="fill:#f9ddbf;fill-opacity:1;fill-rule:nonzero;stroke:none"
         d="m 25685.262,8150.4 c 18.5,-244.9 70.27,-420.2 183.7,-420.2 0,0 504.18,-177.5 1106.82,-182.3 117.78,-0.9 284.67,22.1 422.97,45.3 141.28,23.9 253.21,48 253.21,48 121.19,28 254.92,102.8 236.95,241 -9.46,73.6 -16.37,168 -21.04,277.3 -0.33,7.1 -0.64,14.1 -0.96,21.2 -13.29,320.1 -11.16,761 -12.76,1183.1 -1.17,259.3 -3.72,511.4 -12.44,724 0,0 118.96,835.1 -13.07,972.1 -154.78,160.3 -654.71,207.3 -663.43,208.8 0,0 -395.22,-213.6 -682.77,-52.2 0,0 -419.27,-97.6 -539.93,-225.2 -41.67,-43.9 -207.82,-313.5 -212.39,-609.5 -4.5,-296.6 2.58,-622.3 6.91,-782.1 1.96,-72.2 0.06,-144.4 -5.63,-216.5 -3.29,-41.6 -6.99,-87 -10.84,-135.3 -8.4,-105.2 -17.76,-223.9 -25.62,-347.8 -3.94,-62.3 -7.55,-126 -10.53,-189.7 -8.93,-196.6 -11.69,-394.3 0.85,-560" /><path
         id="path698"
         style="fill:#ffb27d;fill-opacity:1;fill-rule:nonzero;stroke:none"
         d="m 26407.382,11640.7 c 0,0 104.54,-37.6 237.82,-55.5 194.9,-26.3 451.18,-10.8 531.69,225 135.62,397 308.84,634.9 -90.22,797 -213.63,86.8 -350.3,91.4 -443.13,58.3 -80.65,-28.6 -128.19,-85.7 -164.19,-142.2 -77.5,-121.5 -233.39,-813.1 -71.97,-882.6" /><path
         id="path700"
         style="fill:#163560;fill-opacity:1;fill-rule:nonzero;stroke:none"
         d="m 26449.122,12763 c -90.14,-21.9 -130.7,-163.9 -44.89,-222.9 153.82,-105.8 341.82,-64.3 411.07,-95.1 99.25,-44.1 117.08,-210.6 118.87,-263.4 1.79,-53 8.75,-97.6 143.53,-65.9 22.08,5.1 38,3.6 48.94,-2.9 55.91,-33.2 -15.53,-194 -37.08,-228.8 0,0 -31.02,-115.2 37.8,-171.2 8.33,-6.7 143.53,-65.8 469.34,432.8 51.21,78.2 100.1,254.5 21.01,424.3 -78.98,169.8 -323.3,380 -616.48,380 -231.97,0 -361.36,-140.5 -552.11,-186.9" /><path
         id="path702"
         style="fill:#ffffff;fill-opacity:1;fill-rule:nonzero;stroke:none"
         d="m 26404.362,11896.9 c 0,0 -8.36,-51.4 111.11,-92.4 0,0 100.3,-34.4 118.61,18.3 0,0 -79.68,75.9 -229.72,74.1" /><path
         id="path704"
         style="fill:#f2ccaa;fill-opacity:1;fill-rule:nonzero;stroke:none"
         d="m 26695.282,8629.2 c -42.84,-80.4 141.37,-186.5 141.37,-186.5 0,0 509.2,-242.1 1031.22,-283.2 -0.33,7.1 -0.64,14.1 -0.96,21.2 -13.29,320.1 -11.16,761 -12.76,1183.1 0,0 -1088.25,-602.1 -1158.87,-734.6" /><path
         id="path706"
         style="fill:#ed975d;fill-opacity:1;fill-rule:nonzero;stroke:none"
         d="m 25738.702,9019.7 c 13.68,52.1 50.41,95.1 99.29,117.7 62.27,28.8 150.52,67.5 190.72,74.8 65.57,11.9 199.63,90.7 210.56,49.8 10.94,-41 -94.61,-88.4 -95.13,-133.6 -0.53,-45.1 296.41,-155.6 288.51,-202.4 -7.9,-46.8 -92.55,-151.6 -207.62,-123.6 -115.05,28 -400.86,94.9 -466.81,113.5 -34.96,9.8 -31.45,58.3 -19.52,103.8" /><path
         id="path708"
         style="fill:#ffb27d;fill-opacity:1;fill-rule:nonzero;stroke:none"
         d="m 25968.522,8899.7 c 16.04,-26.2 93.7,-117.4 147.28,-126.8 123.24,-21.8 492.9,-99.3 492.9,-99.3 0,0 31.26,233.3 -29.88,251 -61.27,17.6 -140.69,153.3 -181.15,177.1 -30.63,18.1 -155.18,56.5 -234.85,63.3 -10.84,-12.3 -18.53,-24.5 -18.66,-36.6 -0.13,-11.6 19.41,-27.6 48.54,-45.6 15,-8.3 28.86,-16.2 38.95,-22.8 12.1,-8 18.78,-14.4 15.63,-18.1 -14.88,-17.7 -64.67,-11.2 -120.77,5.8 -56.22,16.9 -183.23,95 -220.29,48.2 -21.18,-26.7 -14.02,-71.4 62.3,-196.2" /><path
         id="path710"
         style="fill:#f2ccaa;fill-opacity:1;fill-rule:nonzero;stroke:none"
         d="m 27351.902,9908.3 c 0,0 7.07,-794.6 -773.11,-983.7 0,0 1015.08,-52.4 1040.29,-39.8 25.21,12.5 195.39,373.4 195.39,373.4 l -462.57,650.1" /><path
         id="path712"
         style="fill:#f9ddbf;fill-opacity:1;fill-rule:nonzero;stroke:none"
         d="m 27805.652,11081.1 c 0,0 248.11,-170.2 362.24,-714.1 114.12,-543.8 60.93,-1609.2 -88.45,-1741.3 -149.39,-132 -870.82,-251.4 -1590.94,66.5 0,0 33.75,178.1 90.29,232.4 0,0 817.58,193.3 821.78,319.8 5.65,170.1 -89.53,651.1 -38.2,921.3 51.32,270.1 443.28,915.4 443.28,915.4" /><path
         id="path714"
         style="fill:#f2ccaa;fill-opacity:1;fill-rule:nonzero;stroke:none"
         d="m 25822.802,9244.4 c 0,0 -36.5,153.3 -59.88,210.8 -72.58,178.3 221.56,885.5 183.75,864.5 -37.82,-21 -385.94,-739.5 -371.56,-802.6 14.38,-63 130.99,-108.8 247.69,-272.7" /><g
         transform="matrix(-1.75561,0,0,1.75561,34037.922,0)"
         id="g716" /></g></g></svg>
